%TF.GenerationSoftware,KiCad,Pcbnew,7.0.11+dfsg-1build4*%
%TF.CreationDate,2026-03-09T14:44:51+00:00*%
%TF.ProjectId,ST25R3916B_Custom,53543235-5233-4393-9136-425f43757374,rev?*%
%TF.SameCoordinates,Original*%
%TF.FileFunction,Copper,L1,Top*%
%TF.FilePolarity,Positive*%
%FSLAX46Y46*%
G04 Gerber Fmt 4.6, Leading zero omitted, Abs format (unit mm)*
G04 Created by KiCad (PCBNEW 7.0.11+dfsg-1build4) date 2026-03-09 14:44:51*
%MOMM*%
%LPD*%
G01*
G04 APERTURE LIST*
G04 Aperture macros list*
%AMRoundRect*
0 Rectangle with rounded corners*
0 $1 Rounding radius*
0 $2 $3 $4 $5 $6 $7 $8 $9 X,Y pos of 4 corners*
0 Add a 4 corners polygon primitive as box body*
4,1,4,$2,$3,$4,$5,$6,$7,$8,$9,$2,$3,0*
0 Add four circle primitives for the rounded corners*
1,1,$1+$1,$2,$3*
1,1,$1+$1,$4,$5*
1,1,$1+$1,$6,$7*
1,1,$1+$1,$8,$9*
0 Add four rect primitives between the rounded corners*
20,1,$1+$1,$2,$3,$4,$5,0*
20,1,$1+$1,$4,$5,$6,$7,0*
20,1,$1+$1,$6,$7,$8,$9,0*
20,1,$1+$1,$8,$9,$2,$3,0*%
G04 Aperture macros list end*
%TA.AperFunction,SMDPad,CuDef*%
%ADD10RoundRect,0.062500X-0.375000X-0.062500X0.375000X-0.062500X0.375000X0.062500X-0.375000X0.062500X0*%
%TD*%
%TA.AperFunction,SMDPad,CuDef*%
%ADD11RoundRect,0.062500X-0.062500X-0.375000X0.062500X-0.375000X0.062500X0.375000X-0.062500X0.375000X0*%
%TD*%
%TA.AperFunction,HeatsinkPad*%
%ADD12R,3.450000X3.450000*%
%TD*%
%TA.AperFunction,SMDPad,CuDef*%
%ADD13R,1.400000X1.200000*%
%TD*%
%TA.AperFunction,SMDPad,CuDef*%
%ADD14RoundRect,0.200000X-0.200000X-0.275000X0.200000X-0.275000X0.200000X0.275000X-0.200000X0.275000X0*%
%TD*%
%TA.AperFunction,SMDPad,CuDef*%
%ADD15RoundRect,0.200000X0.275000X-0.200000X0.275000X0.200000X-0.275000X0.200000X-0.275000X-0.200000X0*%
%TD*%
%TA.AperFunction,SMDPad,CuDef*%
%ADD16RoundRect,0.150000X-0.512500X-0.150000X0.512500X-0.150000X0.512500X0.150000X-0.512500X0.150000X0*%
%TD*%
%TA.AperFunction,ComponentPad*%
%ADD17C,1.700000*%
%TD*%
%TA.AperFunction,ViaPad*%
%ADD18C,1.000000*%
%TD*%
%TA.AperFunction,ViaPad*%
%ADD19C,0.800000*%
%TD*%
%TA.AperFunction,ViaPad*%
%ADD20C,0.600000*%
%TD*%
%TA.AperFunction,Conductor*%
%ADD21C,0.200000*%
%TD*%
%TA.AperFunction,Conductor*%
%ADD22C,0.500000*%
%TD*%
%TA.AperFunction,Conductor*%
%ADD23C,0.400000*%
%TD*%
%TA.AperFunction,Conductor*%
%ADD24C,0.300000*%
%TD*%
G04 APERTURE END LIST*
D10*
%TO.P,U1,1*%
%TO.N,N/C*%
X117562500Y-116250000D03*
%TO.P,U1,2*%
X117562500Y-116750000D03*
%TO.P,U1,3*%
X117562500Y-117250000D03*
%TO.P,U1,4*%
X117562500Y-117750000D03*
%TO.P,U1,5*%
X117562500Y-118250000D03*
%TO.P,U1,6*%
X117562500Y-118750000D03*
%TO.P,U1,7*%
X117562500Y-119250000D03*
%TO.P,U1,8*%
X117562500Y-119750000D03*
D11*
%TO.P,U1,9*%
X118250000Y-120437500D03*
%TO.P,U1,10*%
X118750000Y-120437500D03*
%TO.P,U1,11*%
X119250000Y-120437500D03*
%TO.P,U1,12*%
X119750000Y-120437500D03*
%TO.P,U1,13*%
X120250000Y-120437500D03*
%TO.P,U1,14*%
X120750000Y-120437500D03*
%TO.P,U1,15*%
X121250000Y-120437500D03*
%TO.P,U1,16*%
X121750000Y-120437500D03*
D10*
%TO.P,U1,17*%
X122437500Y-119750000D03*
%TO.P,U1,18*%
X122437500Y-119250000D03*
%TO.P,U1,19*%
X122437500Y-118750000D03*
%TO.P,U1,20*%
X122437500Y-118250000D03*
%TO.P,U1,21*%
X122437500Y-117750000D03*
%TO.P,U1,22*%
X122437500Y-117250000D03*
%TO.P,U1,23*%
X122437500Y-116750000D03*
%TO.P,U1,24*%
X122437500Y-116250000D03*
D11*
%TO.P,U1,25*%
X121750000Y-115562500D03*
%TO.P,U1,26*%
X121250000Y-115562500D03*
%TO.P,U1,27*%
X120750000Y-115562500D03*
%TO.P,U1,28*%
X120250000Y-115562500D03*
%TO.P,U1,29*%
X119750000Y-115562500D03*
%TO.P,U1,30*%
X119250000Y-115562500D03*
%TO.P,U1,31*%
X118750000Y-115562500D03*
%TO.P,U1,32*%
X118250000Y-115562500D03*
D12*
%TO.P,U1,33*%
X120000000Y-118000000D03*
%TD*%
D13*
%TO.P,X1,1*%
%TO.N,N/C*%
X110400000Y-118850000D03*
%TO.P,X1,2*%
X112600000Y-118850000D03*
%TO.P,X1,3*%
X112600000Y-117150000D03*
%TO.P,X1,4*%
X110400000Y-117150000D03*
%TD*%
D14*
%TO.P,C31,1*%
%TO.N,N/C*%
X114175000Y-117000000D03*
%TO.P,C31,2*%
X115825000Y-117000000D03*
%TD*%
%TO.P,C32,1*%
%TO.N,N/C*%
X114175000Y-119000000D03*
%TO.P,C32,2*%
X115825000Y-119000000D03*
%TD*%
D15*
%TO.P,L1,1*%
%TO.N,N/C*%
X120250000Y-123325000D03*
%TO.P,L1,2*%
X120250000Y-121675000D03*
%TD*%
%TO.P,L2,1*%
%TO.N,N/C*%
X121250000Y-123325000D03*
%TO.P,L2,2*%
X121250000Y-121675000D03*
%TD*%
D14*
%TO.P,C1,1*%
%TO.N,N/C*%
X116675000Y-122500000D03*
%TO.P,C1,2*%
X118325000Y-122500000D03*
%TD*%
%TO.P,C2,1*%
%TO.N,N/C*%
X123175000Y-122500000D03*
%TO.P,C2,2*%
X124825000Y-122500000D03*
%TD*%
D15*
%TO.P,C3,1*%
%TO.N,N/C*%
X120250000Y-125825000D03*
%TO.P,C3,2*%
X120250000Y-124175000D03*
%TD*%
%TO.P,C4,1*%
%TO.N,N/C*%
X121250000Y-125825000D03*
%TO.P,C4,2*%
X121250000Y-124175000D03*
%TD*%
%TO.P,R1,1*%
%TO.N,N/C*%
X120250000Y-128325000D03*
%TO.P,R1,2*%
X120250000Y-126675000D03*
%TD*%
%TO.P,R2,1*%
%TO.N,N/C*%
X121250000Y-128325000D03*
%TO.P,R2,2*%
X121250000Y-126675000D03*
%TD*%
D14*
%TO.P,C5,1*%
%TO.N,N/C*%
X123675000Y-117250000D03*
%TO.P,C5,2*%
X125325000Y-117250000D03*
%TD*%
%TO.P,C6,1*%
%TO.N,N/C*%
X123675000Y-116750000D03*
%TO.P,C6,2*%
X125325000Y-116750000D03*
%TD*%
%TO.P,C15,1*%
%TO.N,N/C*%
X114175000Y-119750000D03*
%TO.P,C15,2*%
X115825000Y-119750000D03*
%TD*%
%TO.P,C16,1*%
%TO.N,N/C*%
X114175000Y-116250000D03*
%TO.P,C16,2*%
X115825000Y-116250000D03*
%TD*%
%TO.P,C17,1*%
%TO.N,N/C*%
X112675000Y-119750000D03*
%TO.P,C17,2*%
X114325000Y-119750000D03*
%TD*%
%TO.P,C18,1*%
%TO.N,N/C*%
X112675000Y-116250000D03*
%TO.P,C18,2*%
X114325000Y-116250000D03*
%TD*%
%TO.P,C19,1*%
%TO.N,N/C*%
X123675000Y-115500000D03*
%TO.P,C19,2*%
X125325000Y-115500000D03*
%TD*%
%TO.P,C20,1*%
%TO.N,N/C*%
X119175000Y-121500000D03*
%TO.P,C20,2*%
X120825000Y-121500000D03*
%TD*%
D16*
%TO.P,U3,1*%
%TO.N,N/C*%
X125362500Y-106050000D03*
%TO.P,U3,2*%
X125362500Y-107000000D03*
%TO.P,U3,3*%
X125362500Y-107950000D03*
%TO.P,U3,4*%
X127637500Y-107950000D03*
%TO.P,U3,5*%
X127637500Y-106050000D03*
%TD*%
D17*
%TO.P,CN1,1*%
%TO.N,N/C*%
X106500000Y-107500000D03*
%TO.P,CN1,2*%
X106500000Y-110040000D03*
%TO.P,CN1,3*%
X106500000Y-112580000D03*
%TO.P,CN1,4*%
X106500000Y-115120000D03*
%TO.P,CN1,5*%
X106500000Y-117660000D03*
%TO.P,CN1,6*%
X106500000Y-120200000D03*
%TO.P,CN1,7*%
X106500000Y-122740000D03*
%TD*%
D18*
%TO.N,*%
X103500000Y-134000000D03*
X102000000Y-134000000D03*
X101500000Y-136000000D03*
X121250000Y-128325000D03*
D19*
X119000000Y-124000000D03*
X123000000Y-117250000D03*
X119500000Y-124500000D03*
X123500000Y-116750000D03*
X123937500Y-118250000D03*
X117562500Y-118750000D03*
X119750000Y-120437500D03*
X121750000Y-120437500D03*
X122437500Y-117750000D03*
X121250000Y-115562500D03*
D20*
X119000000Y-117000000D03*
X119000000Y-118000000D03*
X119000000Y-119000000D03*
X120000000Y-117000000D03*
X120000000Y-118000000D03*
X120000000Y-119000000D03*
X121000000Y-117000000D03*
X121000000Y-118000000D03*
X121000000Y-119000000D03*
D19*
X115825000Y-117000000D03*
X115825000Y-119000000D03*
X116675000Y-122500000D03*
X124825000Y-122500000D03*
X125325000Y-117250000D03*
X125325000Y-116750000D03*
X114175000Y-119750000D03*
X114175000Y-116250000D03*
X112675000Y-119750000D03*
X112675000Y-116250000D03*
X123675000Y-115500000D03*
X119175000Y-121500000D03*
X125362500Y-107000000D03*
X110400000Y-118850000D03*
X112600000Y-118850000D03*
X106500000Y-107500000D03*
X125700000Y-115500000D03*
%TD*%
D21*
%TO.N,*%
X117562500Y-117750000D02*
X115825000Y-117000000D01*
X114175000Y-117000000D02*
X112600000Y-117150000D01*
X117562500Y-118250000D02*
X117562500Y-119000000D01*
X117562500Y-119000000D02*
X115825000Y-119000000D01*
X114175000Y-119000000D02*
X112600000Y-119000000D01*
X112600000Y-119000000D02*
X109900000Y-119000000D01*
X109900000Y-119000000D02*
X109900000Y-118850000D01*
X120250000Y-120437500D02*
X120250000Y-121675000D01*
X120250000Y-123325000D02*
X120250000Y-124175000D01*
X120250000Y-123325000D02*
X118325000Y-122500000D01*
X123675000Y-122500000D02*
X118325000Y-122500000D01*
X120250000Y-125825000D02*
X120250000Y-126675000D01*
X121250000Y-120437500D02*
X121250000Y-121675000D01*
X121250000Y-123325000D02*
X121250000Y-124175000D01*
X121250000Y-123325000D02*
X123175000Y-122500000D01*
X121250000Y-125825000D02*
X121250000Y-126675000D01*
D22*
X120250000Y-128325000D02*
X120250000Y-132000000D01*
X120250000Y-132000000D02*
X103500000Y-132000000D01*
X103500000Y-132000000D02*
X103500000Y-103500000D01*
X103500000Y-103500000D02*
X136500000Y-103500000D01*
X136500000Y-103500000D02*
X136500000Y-136500000D01*
X136500000Y-136500000D02*
X103500000Y-136500000D01*
X103500000Y-136500000D02*
X103500000Y-134000000D01*
X102000000Y-134000000D02*
X101500000Y-134000000D01*
X101500000Y-134000000D02*
X101500000Y-102500000D01*
X101500000Y-102500000D02*
X101500000Y-101500000D01*
X101500000Y-101500000D02*
X138500000Y-101500000D01*
X138500000Y-101500000D02*
X138500000Y-138500000D01*
X138500000Y-138500000D02*
X101500000Y-138500000D01*
X101500000Y-138500000D02*
X101500000Y-136000000D01*
D21*
X120250000Y-123325000D02*
X119000000Y-123325000D01*
X119000000Y-123325000D02*
X119000000Y-124000000D01*
X123000000Y-117250000D02*
X122437500Y-117250000D01*
X123000000Y-117250000D02*
X123675000Y-117250000D01*
X121250000Y-123325000D02*
X119500000Y-123325000D01*
X119500000Y-123325000D02*
X119500000Y-124500000D01*
X123500000Y-116750000D02*
X122437500Y-116750000D01*
X123500000Y-116750000D02*
X123675000Y-116750000D01*
X118250000Y-115562500D02*
X118250000Y-113000000D01*
X118250000Y-113000000D02*
X106500000Y-113000000D01*
X106500000Y-113000000D02*
X106500000Y-112580000D01*
X118750000Y-115562500D02*
X118750000Y-113000000D01*
X118750000Y-113000000D02*
X106500000Y-113000000D01*
X106500000Y-113000000D02*
X106500000Y-115120000D01*
X119250000Y-115562500D02*
X119250000Y-113000000D01*
X119250000Y-113000000D02*
X106500000Y-113000000D01*
X106500000Y-113000000D02*
X106500000Y-117660000D01*
X119750000Y-115562500D02*
X119750000Y-113000000D01*
X119750000Y-113000000D02*
X106500000Y-113000000D01*
X106500000Y-113000000D02*
X106500000Y-120200000D01*
X120750000Y-115562500D02*
X120750000Y-113000000D01*
X120750000Y-113000000D02*
X106500000Y-113000000D01*
X106500000Y-113000000D02*
X106500000Y-122740000D01*
X122437500Y-118250000D02*
X123937500Y-118250000D01*
X127637500Y-106050000D02*
X127637500Y-106000000D01*
X127637500Y-106000000D02*
X116000000Y-106000000D01*
D23*
X116000000Y-106000000D02*
X116000000Y-120500000D01*
D21*
X125362500Y-107950000D02*
X125362500Y-106050000D01*
X127637500Y-107950000D02*
X127637500Y-106050000D01*
D24*
X116000000Y-116250000D02*
X117562500Y-116250000D01*
X116000000Y-117250000D02*
X117562500Y-117250000D01*
X116000000Y-119250000D02*
X117562500Y-119250000D01*
X116000000Y-119750000D02*
X117562500Y-119750000D01*
X116000000Y-121500000D02*
X121000000Y-121500000D01*
X116000000Y-120500000D02*
X116000000Y-121500000D01*
X118750000Y-121500000D02*
X118750000Y-120437500D01*
X120750000Y-121500000D02*
X120750000Y-120437500D01*
X115825000Y-119750000D02*
X116000000Y-119750000D01*
X115825000Y-116250000D02*
X116000000Y-116250000D01*
X115825000Y-119750000D02*
X116000000Y-119750000D01*
X115825000Y-116250000D02*
X116000000Y-116250000D01*
X120825000Y-121500000D02*
X121000000Y-121500000D01*
D21*
X106500000Y-110040000D02*
X106500000Y-106500000D01*
X106500000Y-106500000D02*
X125362500Y-106500000D01*
X125362500Y-106500000D02*
X125362500Y-106050000D01*
X125325000Y-115500000D02*
X125700000Y-115500000D01*
X122437500Y-116250000D02*
X122937500Y-116250000D01*
X122937500Y-116250000D02*
X122937500Y-115500000D01*
X122937500Y-115500000D02*
X123675000Y-115500000D01*
%TD*%
M02*
