%TF.GenerationSoftware,KiCad,Pcbnew,7.0.11+dfsg-1build4*%
%TF.CreationDate,2026-03-09T11:14:41+00:00*%
%TF.ProjectId,ST25R3916B_Custom,53543235-5233-4393-9136-425f43757374,rev?*%
%TF.SameCoordinates,Original*%
%TF.FileFunction,Soldermask,Top*%
%TF.FilePolarity,Negative*%
%FSLAX46Y46*%
G04 Gerber Fmt 4.6, Leading zero omitted, Abs format (unit mm)*
G04 Created by KiCad (PCBNEW 7.0.11+dfsg-1build4) date 2026-03-09 11:14:41*
%MOMM*%
%LPD*%
G01*
G04 APERTURE LIST*
G04 Aperture macros list*
%AMRoundRect*
0 Rectangle with rounded corners*
0 $1 Rounding radius*
0 $2 $3 $4 $5 $6 $7 $8 $9 X,Y pos of 4 corners*
0 Add a 4 corners polygon primitive as box body*
4,1,4,$2,$3,$4,$5,$6,$7,$8,$9,$2,$3,0*
0 Add four circle primitives for the rounded corners*
1,1,$1+$1,$2,$3*
1,1,$1+$1,$4,$5*
1,1,$1+$1,$6,$7*
1,1,$1+$1,$8,$9*
0 Add four rect primitives between the rounded corners*
20,1,$1+$1,$2,$3,$4,$5,0*
20,1,$1+$1,$4,$5,$6,$7,0*
20,1,$1+$1,$6,$7,$8,$9,0*
20,1,$1+$1,$8,$9,$2,$3,0*%
G04 Aperture macros list end*
%ADD10C,3.200000*%
%ADD11R,0.650000X0.250000*%
%ADD12C,1.700000*%
%ADD13RoundRect,0.225000X0.225000X-0.225000X0.225000X0.225000X-0.225000X0.225000X-0.225000X-0.225000X0*%
G04 APERTURE END LIST*
D10*
%TO.C,*%
X110000000Y-110000000D03*
%TD*%
%TO.C,*%
X130000000Y-110000000D03*
%TD*%
%TO.C,*%
X130000000Y-130000000D03*
%TD*%
%TO.C,*%
X110000000Y-130000000D03*
%TD*%
D11*
%TO.C,*%
X117575000Y-118250000D03*
X117575000Y-118750000D03*
X117575000Y-119250000D03*
X117575000Y-119750000D03*
X117575000Y-120250000D03*
X117575000Y-120750000D03*
X117575000Y-121250000D03*
X117575000Y-121750000D03*
X118000000Y-118250000D03*
X118500000Y-118750000D03*
X119000000Y-119250000D03*
X119500000Y-119750000D03*
X120000000Y-120250000D03*
X120500000Y-120750000D03*
X121000000Y-121250000D03*
X121500000Y-121750000D03*
X122425000Y-121750000D03*
X122425000Y-121250000D03*
X122425000Y-120750000D03*
X122425000Y-120250000D03*
X122425000Y-119750000D03*
X122425000Y-119250000D03*
X122425000Y-118750000D03*
X122425000Y-118250000D03*
X122000000Y-121750000D03*
X121500000Y-121250000D03*
X121000000Y-120750000D03*
X120500000Y-120250000D03*
X120000000Y-119750000D03*
X119500000Y-119250000D03*
X119000000Y-118750000D03*
X118500000Y-118250000D03*
%TD*%
D12*
%TO.C,*%
X110000000Y-108000000D03*
X112540000Y-108000000D03*
X115080000Y-108000000D03*
X117620000Y-108000000D03*
X120160000Y-108000000D03*
X122700000Y-108000000D03*
X125240000Y-108000000D03*
%TD*%
D13*
%TO.C,*%
X117000000Y-126800000D03*
X117000000Y-125200000D03*
%TD*%
%TO.C,*%
X117000000Y-130800000D03*
X117000000Y-129200000D03*
%TD*%
%TO.C,*%
X117000000Y-134800000D03*
X117000000Y-133200000D03*
%TD*%
%TO.C,*%
X123000000Y-126800000D03*
X123000000Y-125200000D03*
%TD*%
%TO.C,*%
X123000000Y-130800000D03*
X123000000Y-129200000D03*
%TD*%
%TO.C,*%
X123000000Y-134800000D03*
X123000000Y-133200000D03*
%TD*%
M02*
