M48
; DRILL file {KiCad 7.0.11+dfsg-1build4} date Mon 09 Mar 2026 02:44:55 PM GMT
; FORMAT={-:-/ absolute / metric / decimal}
; #@! TF.CreationDate,2026-03-09T14:44:55+00:00
; #@! TF.GenerationSoftware,Kicad,Pcbnew,7.0.11+dfsg-1build4
; #@! TF.FileFunction,MixedPlating,1,2
FMAT,2
METRIC
; #@! TA.AperFunction,Plated,PTH,ViaDrill
T1C0.300
; #@! TA.AperFunction,Plated,PTH,ViaDrill
T2C0.400
; #@! TA.AperFunction,Plated,PTH,ViaDrill
T3C0.500
; #@! TA.AperFunction,Plated,PTH,ComponentDrill
T4C1.000
; #@! TA.AperFunction,NonPlated,NPTH,ComponentDrill
T5C3.200
%
G90
G05
T1
X119.0Y-117.0
X119.0Y-118.0
X119.0Y-119.0
X120.0Y-117.0
X120.0Y-118.0
X120.0Y-119.0
X121.0Y-117.0
X121.0Y-118.0
X121.0Y-119.0
T2
X106.5Y-107.5
X110.4Y-118.85
X112.6Y-118.85
X112.675Y-116.25
X112.675Y-119.75
X114.175Y-116.25
X114.175Y-119.75
X115.825Y-117.0
X115.825Y-119.0
X116.675Y-122.5
X117.562Y-118.75
X119.0Y-124.0
X119.175Y-121.5
X119.5Y-124.5
X119.75Y-120.438
X121.25Y-115.562
X121.75Y-120.438
X122.438Y-117.75
X123.0Y-117.25
X123.5Y-116.75
X123.675Y-115.5
X123.938Y-118.25
X124.825Y-122.5
X125.325Y-116.75
X125.325Y-117.25
X125.362Y-107.0
X125.7Y-115.5
T3
X101.5Y-136.0
X102.0Y-134.0
X103.5Y-134.0
X121.25Y-128.325
T4
X106.5Y-107.5
X106.5Y-110.04
X106.5Y-112.58
X106.5Y-115.12
X106.5Y-117.66
X106.5Y-120.2
X106.5Y-122.74
T5
X103.5Y-103.5
X103.5Y-136.5
X136.5Y-103.5
X136.5Y-136.5
M30
