M48
; DRILL file {KiCad 7.0.11+dfsg-1build4} date Tue 10 Mar 2026 09:06:09 AM GMT
; FORMAT={-:-/ absolute / metric / decimal}
; #@! TF.CreationDate,2026-03-10T09:06:09+00:00
; #@! TF.GenerationSoftware,Kicad,Pcbnew,7.0.11+dfsg-1build4
; #@! TF.FileFunction,MixedPlating,1,2
FMAT,2
METRIC
; #@! TA.AperFunction,Plated,PTH,ViaDrill
T1C0.300
; #@! TA.AperFunction,Plated,PTH,ViaDrill
T2C0.400
; #@! TA.AperFunction,Plated,PTH,ViaDrill
T3C0.500
; #@! TA.AperFunction,Plated,PTH,ComponentDrill
T4C1.000
%
G90
G05
T1
X119.0Y-119.0
X119.0Y-120.0
X119.0Y-121.0
X120.0Y-119.0
X120.0Y-120.0
X120.0Y-121.0
X121.0Y-119.0
X121.0Y-120.0
X121.0Y-121.0
T2
X107.5Y-106.0
X107.675Y-115.0
X107.675Y-124.0
X109.4Y-120.85
X110.675Y-115.0
X110.675Y-124.0
X111.6Y-120.85
X113.675Y-119.0
X113.675Y-121.0
X115.675Y-126.0
X116.675Y-124.0
X117.562Y-120.75
X119.5Y-127.5
X119.75Y-122.438
X121.25Y-117.562
X121.5Y-127.5
X121.75Y-122.438
X122.438Y-119.75
X123.5Y-119.25
X123.938Y-120.25
X124.0Y-118.75
X125.325Y-126.0
X126.325Y-116.5
X126.325Y-118.0
X126.325Y-119.5
X126.362Y-109.0
T3
X102.0Y-133.825
X102.5Y-135.0
X105.5Y-135.0
X121.5Y-132.825
T4
X107.5Y-106.0
X107.5Y-108.54
X107.5Y-111.08
X107.5Y-113.62
X107.5Y-116.16
X107.5Y-118.7
X107.5Y-121.24
M30
