%TF.GenerationSoftware,KiCad,Pcbnew,7.0.11+dfsg-1build4*%
%TF.CreationDate,2026-03-10T09:06:09+00:00*%
%TF.ProjectId,ST25R3916B_Custom,53543235-5233-4393-9136-425f43757374,rev?*%
%TF.SameCoordinates,Original*%
%TF.FileFunction,Soldermask,Top*%
%TF.FilePolarity,Negative*%
%FSLAX46Y46*%
G04 Gerber Fmt 4.6, Leading zero omitted, Abs format (unit mm)*
G04 Created by KiCad (PCBNEW 7.0.11+dfsg-1build4) date 2026-03-10 09:06:09*
%MOMM*%
%LPD*%
G01*
G04 APERTURE LIST*
G04 Aperture macros list*
%AMRoundRect*
0 Rectangle with rounded corners*
0 $1 Rounding radius*
0 $2 $3 $4 $5 $6 $7 $8 $9 X,Y pos of 4 corners*
0 Add a 4 corners polygon primitive as box body*
4,1,4,$2,$3,$4,$5,$6,$7,$8,$9,$2,$3,0*
0 Add four circle primitives for the rounded corners*
1,1,$1+$1,$2,$3*
1,1,$1+$1,$4,$5*
1,1,$1+$1,$6,$7*
1,1,$1+$1,$8,$9*
0 Add four rect primitives between the rounded corners*
20,1,$1+$1,$2,$3,$4,$5,0*
20,1,$1+$1,$4,$5,$6,$7,0*
20,1,$1+$1,$6,$7,$8,$9,0*
20,1,$1+$1,$8,$9,$2,$3,0*%
G04 Aperture macros list end*
%ADD10RoundRect,0.087500X-0.400000X-0.087500X0.400000X-0.087500X0.400000X0.087500X-0.400000X0.087500X0*%
%ADD11RoundRect,0.087500X-0.087500X-0.400000X0.087500X-0.400000X0.087500X0.400000X-0.087500X0.400000X0*%
%ADD12RoundRect,0.050000X-1.725000X-1.725000X1.725000X-1.725000X1.725000X1.725000X-1.725000X1.725000X0*%
%ADD13RoundRect,0.050000X-0.700000X-0.600000X0.700000X-0.600000X0.700000X0.600000X-0.700000X0.600000X0*%
%ADD14RoundRect,0.225000X-0.225000X-0.300000X0.225000X-0.300000X0.225000X0.300000X-0.225000X0.300000X0*%
%ADD15RoundRect,0.225000X0.300000X-0.225000X0.300000X0.225000X-0.300000X0.225000X-0.300000X-0.225000X0*%
%ADD16RoundRect,0.175000X-0.537500X-0.175000X0.537500X-0.175000X0.537500X0.175000X-0.537500X0.175000X0*%
%ADD17C,1.800000*%
G04 APERTURE END LIST*
D10*
%TO.C,U1*%
X117562500Y-118250000D03*
X117562500Y-118750000D03*
X117562500Y-119250000D03*
X117562500Y-119750000D03*
X117562500Y-120250000D03*
X117562500Y-120750000D03*
X117562500Y-121250000D03*
X117562500Y-121750000D03*
D11*
X118250000Y-122437500D03*
X118750000Y-122437500D03*
X119250000Y-122437500D03*
X119750000Y-122437500D03*
X120250000Y-122437500D03*
X120750000Y-122437500D03*
X121250000Y-122437500D03*
X121750000Y-122437500D03*
D10*
X122437500Y-121750000D03*
X122437500Y-121250000D03*
X122437500Y-120750000D03*
X122437500Y-120250000D03*
X122437500Y-119750000D03*
X122437500Y-119250000D03*
X122437500Y-118750000D03*
X122437500Y-118250000D03*
D11*
X121750000Y-117562500D03*
X121250000Y-117562500D03*
X120750000Y-117562500D03*
X120250000Y-117562500D03*
X119750000Y-117562500D03*
X119250000Y-117562500D03*
X118750000Y-117562500D03*
X118250000Y-117562500D03*
D12*
X120000000Y-120000000D03*
%TD*%
D13*
%TO.C,X1*%
X109400000Y-120850000D03*
X111600000Y-120850000D03*
X111600000Y-119150000D03*
X109400000Y-119150000D03*
%TD*%
D14*
%TO.C,C31*%
X113675000Y-119000000D03*
X115325000Y-119000000D03*
%TD*%
%TO.C,C32*%
X113675000Y-121000000D03*
X115325000Y-121000000D03*
%TD*%
%TO.C,C15*%
X110675000Y-115000000D03*
X112325000Y-115000000D03*
%TD*%
%TO.C,C16*%
X110675000Y-124000000D03*
X112325000Y-124000000D03*
%TD*%
%TO.C,C17*%
X107675000Y-115000000D03*
X109325000Y-115000000D03*
%TD*%
%TO.C,C18*%
X107675000Y-124000000D03*
X109325000Y-124000000D03*
%TD*%
D15*
%TO.C,L1*%
X119500000Y-126825000D03*
X119500000Y-125175000D03*
%TD*%
%TO.C,L2*%
X121500000Y-126825000D03*
X121500000Y-125175000D03*
%TD*%
D14*
%TO.C,C1*%
X115675000Y-126000000D03*
X117325000Y-126000000D03*
%TD*%
%TO.C,C2*%
X123675000Y-126000000D03*
X125325000Y-126000000D03*
%TD*%
D15*
%TO.C,C3*%
X119500000Y-129825000D03*
X119500000Y-128175000D03*
%TD*%
%TO.C,C4*%
X121500000Y-129825000D03*
X121500000Y-128175000D03*
%TD*%
%TO.C,R1*%
X119500000Y-132825000D03*
X119500000Y-131175000D03*
%TD*%
%TO.C,R2*%
X121500000Y-132825000D03*
X121500000Y-131175000D03*
%TD*%
D14*
%TO.C,C5*%
X124675000Y-119500000D03*
X126325000Y-119500000D03*
%TD*%
%TO.C,C6*%
X124675000Y-118000000D03*
X126325000Y-118000000D03*
%TD*%
%TO.C,C19*%
X124675000Y-116500000D03*
X126325000Y-116500000D03*
%TD*%
%TO.C,C20*%
X116675000Y-124000000D03*
X118325000Y-124000000D03*
%TD*%
D16*
%TO.C,U3*%
X126362500Y-108050000D03*
X126362500Y-109000000D03*
X126362500Y-109950000D03*
X128637500Y-109950000D03*
X128637500Y-108050000D03*
%TD*%
D17*
%TO.C,CN1*%
X107500000Y-106000000D03*
X107500000Y-108540000D03*
X107500000Y-111080000D03*
X107500000Y-113620000D03*
X107500000Y-116160000D03*
X107500000Y-118700000D03*
X107500000Y-121240000D03*
%TD*%
M02*
