%TF.GenerationSoftware,KiCad,Pcbnew,7.0.11+dfsg-1build4*%
%TF.CreationDate,2026-03-09T11:14:40+00:00*%
%TF.ProjectId,ST25R3916B_Custom,53543235-5233-4393-9136-425f43757374,rev?*%
%TF.SameCoordinates,Original*%
%TF.FileFunction,Copper,L1,Top*%
%TF.FilePolarity,Positive*%
%FSLAX46Y46*%
G04 Gerber Fmt 4.6, Leading zero omitted, Abs format (unit mm)*
G04 Created by KiCad (PCBNEW 7.0.11+dfsg-1build4) date 2026-03-09 11:14:40*
%MOMM*%
%LPD*%
G01*
G04 APERTURE LIST*
G04 Aperture macros list*
%AMRoundRect*
0 Rectangle with rounded corners*
0 $1 Rounding radius*
0 $2 $3 $4 $5 $6 $7 $8 $9 X,Y pos of 4 corners*
0 Add a 4 corners polygon primitive as box body*
4,1,4,$2,$3,$4,$5,$6,$7,$8,$9,$2,$3,0*
0 Add four circle primitives for the rounded corners*
1,1,$1+$1,$2,$3*
1,1,$1+$1,$4,$5*
1,1,$1+$1,$6,$7*
1,1,$1+$1,$8,$9*
0 Add four rect primitives between the rounded corners*
20,1,$1+$1,$2,$3,$4,$5,0*
20,1,$1+$1,$4,$5,$6,$7,0*
20,1,$1+$1,$6,$7,$8,$9,0*
20,1,$1+$1,$8,$9,$2,$3,0*%
G04 Aperture macros list end*
%TA.AperFunction,SMDPad,CuDef*%
%ADD10R,0.650000X0.250000*%
%TD*%
%TA.AperFunction,ComponentPad*%
%ADD11C,1.700000*%
%TD*%
%TA.AperFunction,SMDPad,CuDef*%
%ADD12RoundRect,0.225000X0.225000X-0.225000X0.225000X0.225000X-0.225000X0.225000X-0.225000X-0.225000X0*%
%TD*%
%TA.AperFunction,ViaPad*%
%ADD13C,0.800000*%
%TD*%
%TA.AperFunction,Conductor*%
%ADD14C,0.300000*%
%TD*%
%TA.AperFunction,Conductor*%
%ADD15C,0.600000*%
%TD*%
%TA.AperFunction,Conductor*%
%ADD16C,0.500000*%
%TD*%
G04 APERTURE END LIST*
D10*
%TO.P,,1*%
%TO.N,N/C*%
X117575000Y-118250000D03*
%TO.P,,2*%
X117575000Y-118750000D03*
%TO.P,,3*%
X117575000Y-119250000D03*
%TO.P,,4*%
X117575000Y-119750000D03*
%TO.P,,5*%
X117575000Y-120250000D03*
%TO.P,,6*%
X117575000Y-120750000D03*
%TO.P,,7*%
X117575000Y-121250000D03*
%TO.P,,8*%
X117575000Y-121750000D03*
%TO.P,,9*%
X118000000Y-118250000D03*
%TO.P,,10*%
X118500000Y-118750000D03*
%TO.P,,11*%
X119000000Y-119250000D03*
%TO.P,,12*%
X119500000Y-119750000D03*
%TO.P,,13*%
X120000000Y-120250000D03*
%TO.P,,14*%
X120500000Y-120750000D03*
%TO.P,,15*%
X121000000Y-121250000D03*
%TO.P,,16*%
X121500000Y-121750000D03*
%TO.P,,17*%
X122425000Y-121750000D03*
%TO.P,,18*%
X122425000Y-121250000D03*
%TO.P,,19*%
X122425000Y-120750000D03*
%TO.P,,20*%
X122425000Y-120250000D03*
%TO.P,,21*%
X122425000Y-119750000D03*
%TO.P,,22*%
X122425000Y-119250000D03*
%TO.P,,23*%
X122425000Y-118750000D03*
%TO.P,,24*%
X122425000Y-118250000D03*
%TO.P,,25*%
X122000000Y-121750000D03*
%TO.P,,26*%
X121500000Y-121250000D03*
%TO.P,,27*%
X121000000Y-120750000D03*
%TO.P,,28*%
X120500000Y-120250000D03*
%TO.P,,29*%
X120000000Y-119750000D03*
%TO.P,,30*%
X119500000Y-119250000D03*
%TO.P,,31*%
X119000000Y-118750000D03*
%TO.P,,32*%
X118500000Y-118250000D03*
%TD*%
D11*
%TO.P,,1*%
%TO.N,N/C*%
X110000000Y-108000000D03*
%TO.P,,2*%
X112540000Y-108000000D03*
%TO.P,,3*%
X115080000Y-108000000D03*
%TO.P,,4*%
X117620000Y-108000000D03*
%TO.P,,5*%
X120160000Y-108000000D03*
%TO.P,,6*%
X122700000Y-108000000D03*
%TO.P,,7*%
X125240000Y-108000000D03*
%TD*%
D12*
%TO.P,,1*%
%TO.N,N/C*%
X117000000Y-126800000D03*
%TO.P,,2*%
X117000000Y-125200000D03*
%TD*%
%TO.P,,1*%
%TO.N,N/C*%
X117000000Y-130800000D03*
%TO.P,,2*%
X117000000Y-129200000D03*
%TD*%
%TO.P,,1*%
%TO.N,N/C*%
X117000000Y-134800000D03*
%TO.P,,2*%
X117000000Y-133200000D03*
%TD*%
%TO.P,,1*%
%TO.N,N/C*%
X123000000Y-126800000D03*
%TO.P,,2*%
X123000000Y-125200000D03*
%TD*%
%TO.P,,1*%
%TO.N,N/C*%
X123000000Y-130800000D03*
%TO.P,,2*%
X123000000Y-129200000D03*
%TD*%
%TO.P,,1*%
%TO.N,N/C*%
X123000000Y-134800000D03*
%TO.P,,2*%
X123000000Y-133200000D03*
%TD*%
D13*
%TO.N,*%
X101500000Y-101500000D03*
X117000000Y-136800000D03*
%TD*%
D14*
%TO.N,*%
X120250000Y-122425000D02*
X117000000Y-125200000D01*
X121250000Y-122425000D02*
X123000000Y-125200000D01*
X117000000Y-126800000D02*
X117000000Y-129200000D01*
X117000000Y-130800000D02*
X117000000Y-133200000D01*
X123000000Y-126800000D02*
X123000000Y-129200000D01*
X123000000Y-130800000D02*
X123000000Y-133200000D01*
D15*
X101500000Y-101500000D02*
X138500000Y-101500000D01*
X138500000Y-101500000D02*
X138500000Y-138500000D01*
X138500000Y-138500000D02*
X101500000Y-138500000D01*
X101500000Y-138500000D02*
X101500000Y-102500000D01*
X101500000Y-102500000D02*
X137000000Y-102500000D01*
X137000000Y-102500000D02*
X137000000Y-137000000D01*
X137000000Y-137000000D02*
X103000000Y-137000000D01*
X103000000Y-137000000D02*
X103000000Y-104000000D01*
D16*
X117000000Y-136800000D02*
X117000000Y-134800000D01*
X103000000Y-104000000D02*
X123000000Y-134800000D01*
%TD*%
M02*
