%TF.GenerationSoftware,KiCad,Pcbnew,7.0.11+dfsg-1build4*%
%TF.CreationDate,2026-03-09T19:58:56+00:00*%
%TF.ProjectId,ST25R3916B_Custom,53543235-5233-4393-9136-425f43757374,rev?*%
%TF.SameCoordinates,Original*%
%TF.FileFunction,Legend,Top*%
%TF.FilePolarity,Positive*%
%FSLAX46Y46*%
G04 Gerber Fmt 4.6, Leading zero omitted, Abs format (unit mm)*
G04 Created by KiCad (PCBNEW 7.0.11+dfsg-1build4) date 2026-03-09 19:58:56*
%MOMM*%
%LPD*%
G01*
G04 APERTURE LIST*
%ADD10C,0.150000*%
%ADD11C,0.100000*%
%ADD12C,0.120000*%
%ADD13C,0.250000*%
G04 APERTURE END LIST*
D10*
X110690475Y-101907200D02*
X110833332Y-101954819D01*
X110833332Y-101954819D02*
X111071427Y-101954819D01*
X111071427Y-101954819D02*
X111166665Y-101907200D01*
X111166665Y-101907200D02*
X111214284Y-101859580D01*
X111214284Y-101859580D02*
X111261903Y-101764342D01*
X111261903Y-101764342D02*
X111261903Y-101669104D01*
X111261903Y-101669104D02*
X111214284Y-101573866D01*
X111214284Y-101573866D02*
X111166665Y-101526247D01*
X111166665Y-101526247D02*
X111071427Y-101478628D01*
X111071427Y-101478628D02*
X110880951Y-101431009D01*
X110880951Y-101431009D02*
X110785713Y-101383390D01*
X110785713Y-101383390D02*
X110738094Y-101335771D01*
X110738094Y-101335771D02*
X110690475Y-101240533D01*
X110690475Y-101240533D02*
X110690475Y-101145295D01*
X110690475Y-101145295D02*
X110738094Y-101050057D01*
X110738094Y-101050057D02*
X110785713Y-101002438D01*
X110785713Y-101002438D02*
X110880951Y-100954819D01*
X110880951Y-100954819D02*
X111119046Y-100954819D01*
X111119046Y-100954819D02*
X111261903Y-101002438D01*
X111547618Y-100954819D02*
X112119046Y-100954819D01*
X111833332Y-101954819D02*
X111833332Y-100954819D01*
X112404761Y-101050057D02*
X112452380Y-101002438D01*
X112452380Y-101002438D02*
X112547618Y-100954819D01*
X112547618Y-100954819D02*
X112785713Y-100954819D01*
X112785713Y-100954819D02*
X112880951Y-101002438D01*
X112880951Y-101002438D02*
X112928570Y-101050057D01*
X112928570Y-101050057D02*
X112976189Y-101145295D01*
X112976189Y-101145295D02*
X112976189Y-101240533D01*
X112976189Y-101240533D02*
X112928570Y-101383390D01*
X112928570Y-101383390D02*
X112357142Y-101954819D01*
X112357142Y-101954819D02*
X112976189Y-101954819D01*
X113880951Y-100954819D02*
X113404761Y-100954819D01*
X113404761Y-100954819D02*
X113357142Y-101431009D01*
X113357142Y-101431009D02*
X113404761Y-101383390D01*
X113404761Y-101383390D02*
X113499999Y-101335771D01*
X113499999Y-101335771D02*
X113738094Y-101335771D01*
X113738094Y-101335771D02*
X113833332Y-101383390D01*
X113833332Y-101383390D02*
X113880951Y-101431009D01*
X113880951Y-101431009D02*
X113928570Y-101526247D01*
X113928570Y-101526247D02*
X113928570Y-101764342D01*
X113928570Y-101764342D02*
X113880951Y-101859580D01*
X113880951Y-101859580D02*
X113833332Y-101907200D01*
X113833332Y-101907200D02*
X113738094Y-101954819D01*
X113738094Y-101954819D02*
X113499999Y-101954819D01*
X113499999Y-101954819D02*
X113404761Y-101907200D01*
X113404761Y-101907200D02*
X113357142Y-101859580D01*
X114928570Y-101954819D02*
X114595237Y-101478628D01*
X114357142Y-101954819D02*
X114357142Y-100954819D01*
X114357142Y-100954819D02*
X114738094Y-100954819D01*
X114738094Y-100954819D02*
X114833332Y-101002438D01*
X114833332Y-101002438D02*
X114880951Y-101050057D01*
X114880951Y-101050057D02*
X114928570Y-101145295D01*
X114928570Y-101145295D02*
X114928570Y-101288152D01*
X114928570Y-101288152D02*
X114880951Y-101383390D01*
X114880951Y-101383390D02*
X114833332Y-101431009D01*
X114833332Y-101431009D02*
X114738094Y-101478628D01*
X114738094Y-101478628D02*
X114357142Y-101478628D01*
X115261904Y-100954819D02*
X115880951Y-100954819D01*
X115880951Y-100954819D02*
X115547618Y-101335771D01*
X115547618Y-101335771D02*
X115690475Y-101335771D01*
X115690475Y-101335771D02*
X115785713Y-101383390D01*
X115785713Y-101383390D02*
X115833332Y-101431009D01*
X115833332Y-101431009D02*
X115880951Y-101526247D01*
X115880951Y-101526247D02*
X115880951Y-101764342D01*
X115880951Y-101764342D02*
X115833332Y-101859580D01*
X115833332Y-101859580D02*
X115785713Y-101907200D01*
X115785713Y-101907200D02*
X115690475Y-101954819D01*
X115690475Y-101954819D02*
X115404761Y-101954819D01*
X115404761Y-101954819D02*
X115309523Y-101907200D01*
X115309523Y-101907200D02*
X115261904Y-101859580D01*
X116357142Y-101954819D02*
X116547618Y-101954819D01*
X116547618Y-101954819D02*
X116642856Y-101907200D01*
X116642856Y-101907200D02*
X116690475Y-101859580D01*
X116690475Y-101859580D02*
X116785713Y-101716723D01*
X116785713Y-101716723D02*
X116833332Y-101526247D01*
X116833332Y-101526247D02*
X116833332Y-101145295D01*
X116833332Y-101145295D02*
X116785713Y-101050057D01*
X116785713Y-101050057D02*
X116738094Y-101002438D01*
X116738094Y-101002438D02*
X116642856Y-100954819D01*
X116642856Y-100954819D02*
X116452380Y-100954819D01*
X116452380Y-100954819D02*
X116357142Y-101002438D01*
X116357142Y-101002438D02*
X116309523Y-101050057D01*
X116309523Y-101050057D02*
X116261904Y-101145295D01*
X116261904Y-101145295D02*
X116261904Y-101383390D01*
X116261904Y-101383390D02*
X116309523Y-101478628D01*
X116309523Y-101478628D02*
X116357142Y-101526247D01*
X116357142Y-101526247D02*
X116452380Y-101573866D01*
X116452380Y-101573866D02*
X116642856Y-101573866D01*
X116642856Y-101573866D02*
X116738094Y-101526247D01*
X116738094Y-101526247D02*
X116785713Y-101478628D01*
X116785713Y-101478628D02*
X116833332Y-101383390D01*
X117785713Y-101954819D02*
X117214285Y-101954819D01*
X117499999Y-101954819D02*
X117499999Y-100954819D01*
X117499999Y-100954819D02*
X117404761Y-101097676D01*
X117404761Y-101097676D02*
X117309523Y-101192914D01*
X117309523Y-101192914D02*
X117214285Y-101240533D01*
X118642856Y-100954819D02*
X118452380Y-100954819D01*
X118452380Y-100954819D02*
X118357142Y-101002438D01*
X118357142Y-101002438D02*
X118309523Y-101050057D01*
X118309523Y-101050057D02*
X118214285Y-101192914D01*
X118214285Y-101192914D02*
X118166666Y-101383390D01*
X118166666Y-101383390D02*
X118166666Y-101764342D01*
X118166666Y-101764342D02*
X118214285Y-101859580D01*
X118214285Y-101859580D02*
X118261904Y-101907200D01*
X118261904Y-101907200D02*
X118357142Y-101954819D01*
X118357142Y-101954819D02*
X118547618Y-101954819D01*
X118547618Y-101954819D02*
X118642856Y-101907200D01*
X118642856Y-101907200D02*
X118690475Y-101859580D01*
X118690475Y-101859580D02*
X118738094Y-101764342D01*
X118738094Y-101764342D02*
X118738094Y-101526247D01*
X118738094Y-101526247D02*
X118690475Y-101431009D01*
X118690475Y-101431009D02*
X118642856Y-101383390D01*
X118642856Y-101383390D02*
X118547618Y-101335771D01*
X118547618Y-101335771D02*
X118357142Y-101335771D01*
X118357142Y-101335771D02*
X118261904Y-101383390D01*
X118261904Y-101383390D02*
X118214285Y-101431009D01*
X118214285Y-101431009D02*
X118166666Y-101526247D01*
X119499999Y-101431009D02*
X119642856Y-101478628D01*
X119642856Y-101478628D02*
X119690475Y-101526247D01*
X119690475Y-101526247D02*
X119738094Y-101621485D01*
X119738094Y-101621485D02*
X119738094Y-101764342D01*
X119738094Y-101764342D02*
X119690475Y-101859580D01*
X119690475Y-101859580D02*
X119642856Y-101907200D01*
X119642856Y-101907200D02*
X119547618Y-101954819D01*
X119547618Y-101954819D02*
X119166666Y-101954819D01*
X119166666Y-101954819D02*
X119166666Y-100954819D01*
X119166666Y-100954819D02*
X119499999Y-100954819D01*
X119499999Y-100954819D02*
X119595237Y-101002438D01*
X119595237Y-101002438D02*
X119642856Y-101050057D01*
X119642856Y-101050057D02*
X119690475Y-101145295D01*
X119690475Y-101145295D02*
X119690475Y-101240533D01*
X119690475Y-101240533D02*
X119642856Y-101335771D01*
X119642856Y-101335771D02*
X119595237Y-101383390D01*
X119595237Y-101383390D02*
X119499999Y-101431009D01*
X119499999Y-101431009D02*
X119166666Y-101431009D01*
X120928571Y-101954819D02*
X120928571Y-100954819D01*
X120928571Y-100954819D02*
X121499999Y-101954819D01*
X121499999Y-101954819D02*
X121499999Y-100954819D01*
X122309523Y-101431009D02*
X121976190Y-101431009D01*
X121976190Y-101954819D02*
X121976190Y-100954819D01*
X121976190Y-100954819D02*
X122452380Y-100954819D01*
X123404761Y-101859580D02*
X123357142Y-101907200D01*
X123357142Y-101907200D02*
X123214285Y-101954819D01*
X123214285Y-101954819D02*
X123119047Y-101954819D01*
X123119047Y-101954819D02*
X122976190Y-101907200D01*
X122976190Y-101907200D02*
X122880952Y-101811961D01*
X122880952Y-101811961D02*
X122833333Y-101716723D01*
X122833333Y-101716723D02*
X122785714Y-101526247D01*
X122785714Y-101526247D02*
X122785714Y-101383390D01*
X122785714Y-101383390D02*
X122833333Y-101192914D01*
X122833333Y-101192914D02*
X122880952Y-101097676D01*
X122880952Y-101097676D02*
X122976190Y-101002438D01*
X122976190Y-101002438D02*
X123119047Y-100954819D01*
X123119047Y-100954819D02*
X123214285Y-100954819D01*
X123214285Y-100954819D02*
X123357142Y-101002438D01*
X123357142Y-101002438D02*
X123404761Y-101050057D01*
X125166666Y-101954819D02*
X124833333Y-101478628D01*
X124595238Y-101954819D02*
X124595238Y-100954819D01*
X124595238Y-100954819D02*
X124976190Y-100954819D01*
X124976190Y-100954819D02*
X125071428Y-101002438D01*
X125071428Y-101002438D02*
X125119047Y-101050057D01*
X125119047Y-101050057D02*
X125166666Y-101145295D01*
X125166666Y-101145295D02*
X125166666Y-101288152D01*
X125166666Y-101288152D02*
X125119047Y-101383390D01*
X125119047Y-101383390D02*
X125071428Y-101431009D01*
X125071428Y-101431009D02*
X124976190Y-101478628D01*
X124976190Y-101478628D02*
X124595238Y-101478628D01*
X125976190Y-101907200D02*
X125880952Y-101954819D01*
X125880952Y-101954819D02*
X125690476Y-101954819D01*
X125690476Y-101954819D02*
X125595238Y-101907200D01*
X125595238Y-101907200D02*
X125547619Y-101811961D01*
X125547619Y-101811961D02*
X125547619Y-101431009D01*
X125547619Y-101431009D02*
X125595238Y-101335771D01*
X125595238Y-101335771D02*
X125690476Y-101288152D01*
X125690476Y-101288152D02*
X125880952Y-101288152D01*
X125880952Y-101288152D02*
X125976190Y-101335771D01*
X125976190Y-101335771D02*
X126023809Y-101431009D01*
X126023809Y-101431009D02*
X126023809Y-101526247D01*
X126023809Y-101526247D02*
X125547619Y-101621485D01*
X126880952Y-101954819D02*
X126880952Y-101431009D01*
X126880952Y-101431009D02*
X126833333Y-101335771D01*
X126833333Y-101335771D02*
X126738095Y-101288152D01*
X126738095Y-101288152D02*
X126547619Y-101288152D01*
X126547619Y-101288152D02*
X126452381Y-101335771D01*
X126880952Y-101907200D02*
X126785714Y-101954819D01*
X126785714Y-101954819D02*
X126547619Y-101954819D01*
X126547619Y-101954819D02*
X126452381Y-101907200D01*
X126452381Y-101907200D02*
X126404762Y-101811961D01*
X126404762Y-101811961D02*
X126404762Y-101716723D01*
X126404762Y-101716723D02*
X126452381Y-101621485D01*
X126452381Y-101621485D02*
X126547619Y-101573866D01*
X126547619Y-101573866D02*
X126785714Y-101573866D01*
X126785714Y-101573866D02*
X126880952Y-101526247D01*
X127785714Y-101954819D02*
X127785714Y-100954819D01*
X127785714Y-101907200D02*
X127690476Y-101954819D01*
X127690476Y-101954819D02*
X127500000Y-101954819D01*
X127500000Y-101954819D02*
X127404762Y-101907200D01*
X127404762Y-101907200D02*
X127357143Y-101859580D01*
X127357143Y-101859580D02*
X127309524Y-101764342D01*
X127309524Y-101764342D02*
X127309524Y-101478628D01*
X127309524Y-101478628D02*
X127357143Y-101383390D01*
X127357143Y-101383390D02*
X127404762Y-101335771D01*
X127404762Y-101335771D02*
X127500000Y-101288152D01*
X127500000Y-101288152D02*
X127690476Y-101288152D01*
X127690476Y-101288152D02*
X127785714Y-101335771D01*
X128642857Y-101907200D02*
X128547619Y-101954819D01*
X128547619Y-101954819D02*
X128357143Y-101954819D01*
X128357143Y-101954819D02*
X128261905Y-101907200D01*
X128261905Y-101907200D02*
X128214286Y-101811961D01*
X128214286Y-101811961D02*
X128214286Y-101431009D01*
X128214286Y-101431009D02*
X128261905Y-101335771D01*
X128261905Y-101335771D02*
X128357143Y-101288152D01*
X128357143Y-101288152D02*
X128547619Y-101288152D01*
X128547619Y-101288152D02*
X128642857Y-101335771D01*
X128642857Y-101335771D02*
X128690476Y-101431009D01*
X128690476Y-101431009D02*
X128690476Y-101526247D01*
X128690476Y-101526247D02*
X128214286Y-101621485D01*
X129119048Y-101954819D02*
X129119048Y-101288152D01*
X129119048Y-101478628D02*
X129166667Y-101383390D01*
X129166667Y-101383390D02*
X129214286Y-101335771D01*
X129214286Y-101335771D02*
X129309524Y-101288152D01*
X129309524Y-101288152D02*
X129404762Y-101288152D01*
D11*
X112814286Y-138200942D02*
X112757144Y-138172371D01*
X112757144Y-138172371D02*
X112671429Y-138172371D01*
X112671429Y-138172371D02*
X112585715Y-138200942D01*
X112585715Y-138200942D02*
X112528572Y-138258085D01*
X112528572Y-138258085D02*
X112500001Y-138315228D01*
X112500001Y-138315228D02*
X112471429Y-138429514D01*
X112471429Y-138429514D02*
X112471429Y-138515228D01*
X112471429Y-138515228D02*
X112500001Y-138629514D01*
X112500001Y-138629514D02*
X112528572Y-138686657D01*
X112528572Y-138686657D02*
X112585715Y-138743800D01*
X112585715Y-138743800D02*
X112671429Y-138772371D01*
X112671429Y-138772371D02*
X112728572Y-138772371D01*
X112728572Y-138772371D02*
X112814286Y-138743800D01*
X112814286Y-138743800D02*
X112842858Y-138715228D01*
X112842858Y-138715228D02*
X112842858Y-138515228D01*
X112842858Y-138515228D02*
X112728572Y-138515228D01*
X113100001Y-138772371D02*
X113100001Y-138172371D01*
X113100001Y-138172371D02*
X113442858Y-138772371D01*
X113442858Y-138772371D02*
X113442858Y-138172371D01*
X113728572Y-138772371D02*
X113728572Y-138172371D01*
X113728572Y-138172371D02*
X113871429Y-138172371D01*
X113871429Y-138172371D02*
X113957143Y-138200942D01*
X113957143Y-138200942D02*
X114014286Y-138258085D01*
X114014286Y-138258085D02*
X114042857Y-138315228D01*
X114042857Y-138315228D02*
X114071429Y-138429514D01*
X114071429Y-138429514D02*
X114071429Y-138515228D01*
X114071429Y-138515228D02*
X114042857Y-138629514D01*
X114042857Y-138629514D02*
X114014286Y-138686657D01*
X114014286Y-138686657D02*
X113957143Y-138743800D01*
X113957143Y-138743800D02*
X113871429Y-138772371D01*
X113871429Y-138772371D02*
X113728572Y-138772371D01*
X114700000Y-138172371D02*
X114900000Y-138772371D01*
X114900000Y-138772371D02*
X115100000Y-138172371D01*
X115300001Y-138772371D02*
X115300001Y-138172371D01*
X115585715Y-138772371D02*
X115585715Y-138172371D01*
X115585715Y-138172371D02*
X115928572Y-138772371D01*
X115928572Y-138772371D02*
X115928572Y-138172371D01*
X116671429Y-138772371D02*
X116671429Y-138172371D01*
X116671429Y-138172371D02*
X116871429Y-138600942D01*
X116871429Y-138600942D02*
X117071429Y-138172371D01*
X117071429Y-138172371D02*
X117071429Y-138772371D01*
X117357143Y-138772371D02*
X117357143Y-138172371D01*
X117614285Y-138743800D02*
X117700000Y-138772371D01*
X117700000Y-138772371D02*
X117842857Y-138772371D01*
X117842857Y-138772371D02*
X117900000Y-138743800D01*
X117900000Y-138743800D02*
X117928571Y-138715228D01*
X117928571Y-138715228D02*
X117957142Y-138658085D01*
X117957142Y-138658085D02*
X117957142Y-138600942D01*
X117957142Y-138600942D02*
X117928571Y-138543800D01*
X117928571Y-138543800D02*
X117900000Y-138515228D01*
X117900000Y-138515228D02*
X117842857Y-138486657D01*
X117842857Y-138486657D02*
X117728571Y-138458085D01*
X117728571Y-138458085D02*
X117671428Y-138429514D01*
X117671428Y-138429514D02*
X117642857Y-138400942D01*
X117642857Y-138400942D02*
X117614285Y-138343800D01*
X117614285Y-138343800D02*
X117614285Y-138286657D01*
X117614285Y-138286657D02*
X117642857Y-138229514D01*
X117642857Y-138229514D02*
X117671428Y-138200942D01*
X117671428Y-138200942D02*
X117728571Y-138172371D01*
X117728571Y-138172371D02*
X117871428Y-138172371D01*
X117871428Y-138172371D02*
X117957142Y-138200942D01*
X118328571Y-138172371D02*
X118442857Y-138172371D01*
X118442857Y-138172371D02*
X118500000Y-138200942D01*
X118500000Y-138200942D02*
X118557143Y-138258085D01*
X118557143Y-138258085D02*
X118585714Y-138372371D01*
X118585714Y-138372371D02*
X118585714Y-138572371D01*
X118585714Y-138572371D02*
X118557143Y-138686657D01*
X118557143Y-138686657D02*
X118500000Y-138743800D01*
X118500000Y-138743800D02*
X118442857Y-138772371D01*
X118442857Y-138772371D02*
X118328571Y-138772371D01*
X118328571Y-138772371D02*
X118271429Y-138743800D01*
X118271429Y-138743800D02*
X118214286Y-138686657D01*
X118214286Y-138686657D02*
X118185714Y-138572371D01*
X118185714Y-138572371D02*
X118185714Y-138372371D01*
X118185714Y-138372371D02*
X118214286Y-138258085D01*
X118214286Y-138258085D02*
X118271429Y-138200942D01*
X118271429Y-138200942D02*
X118328571Y-138172371D01*
X119300000Y-138772371D02*
X119300000Y-138172371D01*
X119300000Y-138172371D02*
X119500000Y-138600942D01*
X119500000Y-138600942D02*
X119700000Y-138172371D01*
X119700000Y-138172371D02*
X119700000Y-138772371D01*
X120099999Y-138172371D02*
X120214285Y-138172371D01*
X120214285Y-138172371D02*
X120271428Y-138200942D01*
X120271428Y-138200942D02*
X120328571Y-138258085D01*
X120328571Y-138258085D02*
X120357142Y-138372371D01*
X120357142Y-138372371D02*
X120357142Y-138572371D01*
X120357142Y-138572371D02*
X120328571Y-138686657D01*
X120328571Y-138686657D02*
X120271428Y-138743800D01*
X120271428Y-138743800D02*
X120214285Y-138772371D01*
X120214285Y-138772371D02*
X120099999Y-138772371D01*
X120099999Y-138772371D02*
X120042857Y-138743800D01*
X120042857Y-138743800D02*
X119985714Y-138686657D01*
X119985714Y-138686657D02*
X119957142Y-138572371D01*
X119957142Y-138572371D02*
X119957142Y-138372371D01*
X119957142Y-138372371D02*
X119985714Y-138258085D01*
X119985714Y-138258085D02*
X120042857Y-138200942D01*
X120042857Y-138200942D02*
X120099999Y-138172371D01*
X120585713Y-138743800D02*
X120671428Y-138772371D01*
X120671428Y-138772371D02*
X120814285Y-138772371D01*
X120814285Y-138772371D02*
X120871428Y-138743800D01*
X120871428Y-138743800D02*
X120899999Y-138715228D01*
X120899999Y-138715228D02*
X120928570Y-138658085D01*
X120928570Y-138658085D02*
X120928570Y-138600942D01*
X120928570Y-138600942D02*
X120899999Y-138543800D01*
X120899999Y-138543800D02*
X120871428Y-138515228D01*
X120871428Y-138515228D02*
X120814285Y-138486657D01*
X120814285Y-138486657D02*
X120699999Y-138458085D01*
X120699999Y-138458085D02*
X120642856Y-138429514D01*
X120642856Y-138429514D02*
X120614285Y-138400942D01*
X120614285Y-138400942D02*
X120585713Y-138343800D01*
X120585713Y-138343800D02*
X120585713Y-138286657D01*
X120585713Y-138286657D02*
X120614285Y-138229514D01*
X120614285Y-138229514D02*
X120642856Y-138200942D01*
X120642856Y-138200942D02*
X120699999Y-138172371D01*
X120699999Y-138172371D02*
X120842856Y-138172371D01*
X120842856Y-138172371D02*
X120928570Y-138200942D01*
X121185714Y-138772371D02*
X121185714Y-138172371D01*
X121899999Y-138743800D02*
X121985714Y-138772371D01*
X121985714Y-138772371D02*
X122128571Y-138772371D01*
X122128571Y-138772371D02*
X122185714Y-138743800D01*
X122185714Y-138743800D02*
X122214285Y-138715228D01*
X122214285Y-138715228D02*
X122242856Y-138658085D01*
X122242856Y-138658085D02*
X122242856Y-138600942D01*
X122242856Y-138600942D02*
X122214285Y-138543800D01*
X122214285Y-138543800D02*
X122185714Y-138515228D01*
X122185714Y-138515228D02*
X122128571Y-138486657D01*
X122128571Y-138486657D02*
X122014285Y-138458085D01*
X122014285Y-138458085D02*
X121957142Y-138429514D01*
X121957142Y-138429514D02*
X121928571Y-138400942D01*
X121928571Y-138400942D02*
X121899999Y-138343800D01*
X121899999Y-138343800D02*
X121899999Y-138286657D01*
X121899999Y-138286657D02*
X121928571Y-138229514D01*
X121928571Y-138229514D02*
X121957142Y-138200942D01*
X121957142Y-138200942D02*
X122014285Y-138172371D01*
X122014285Y-138172371D02*
X122157142Y-138172371D01*
X122157142Y-138172371D02*
X122242856Y-138200942D01*
X122842857Y-138715228D02*
X122814285Y-138743800D01*
X122814285Y-138743800D02*
X122728571Y-138772371D01*
X122728571Y-138772371D02*
X122671428Y-138772371D01*
X122671428Y-138772371D02*
X122585714Y-138743800D01*
X122585714Y-138743800D02*
X122528571Y-138686657D01*
X122528571Y-138686657D02*
X122500000Y-138629514D01*
X122500000Y-138629514D02*
X122471428Y-138515228D01*
X122471428Y-138515228D02*
X122471428Y-138429514D01*
X122471428Y-138429514D02*
X122500000Y-138315228D01*
X122500000Y-138315228D02*
X122528571Y-138258085D01*
X122528571Y-138258085D02*
X122585714Y-138200942D01*
X122585714Y-138200942D02*
X122671428Y-138172371D01*
X122671428Y-138172371D02*
X122728571Y-138172371D01*
X122728571Y-138172371D02*
X122814285Y-138200942D01*
X122814285Y-138200942D02*
X122842857Y-138229514D01*
X123385714Y-138772371D02*
X123100000Y-138772371D01*
X123100000Y-138772371D02*
X123100000Y-138172371D01*
X123585714Y-138772371D02*
X123585714Y-138172371D01*
X123928571Y-138772371D02*
X123671428Y-138429514D01*
X123928571Y-138172371D02*
X123585714Y-138515228D01*
X124985714Y-138715228D02*
X124957142Y-138743800D01*
X124957142Y-138743800D02*
X124871428Y-138772371D01*
X124871428Y-138772371D02*
X124814285Y-138772371D01*
X124814285Y-138772371D02*
X124728571Y-138743800D01*
X124728571Y-138743800D02*
X124671428Y-138686657D01*
X124671428Y-138686657D02*
X124642857Y-138629514D01*
X124642857Y-138629514D02*
X124614285Y-138515228D01*
X124614285Y-138515228D02*
X124614285Y-138429514D01*
X124614285Y-138429514D02*
X124642857Y-138315228D01*
X124642857Y-138315228D02*
X124671428Y-138258085D01*
X124671428Y-138258085D02*
X124728571Y-138200942D01*
X124728571Y-138200942D02*
X124814285Y-138172371D01*
X124814285Y-138172371D02*
X124871428Y-138172371D01*
X124871428Y-138172371D02*
X124957142Y-138200942D01*
X124957142Y-138200942D02*
X124985714Y-138229514D01*
X125214285Y-138743800D02*
X125300000Y-138772371D01*
X125300000Y-138772371D02*
X125442857Y-138772371D01*
X125442857Y-138772371D02*
X125500000Y-138743800D01*
X125500000Y-138743800D02*
X125528571Y-138715228D01*
X125528571Y-138715228D02*
X125557142Y-138658085D01*
X125557142Y-138658085D02*
X125557142Y-138600942D01*
X125557142Y-138600942D02*
X125528571Y-138543800D01*
X125528571Y-138543800D02*
X125500000Y-138515228D01*
X125500000Y-138515228D02*
X125442857Y-138486657D01*
X125442857Y-138486657D02*
X125328571Y-138458085D01*
X125328571Y-138458085D02*
X125271428Y-138429514D01*
X125271428Y-138429514D02*
X125242857Y-138400942D01*
X125242857Y-138400942D02*
X125214285Y-138343800D01*
X125214285Y-138343800D02*
X125214285Y-138286657D01*
X125214285Y-138286657D02*
X125242857Y-138229514D01*
X125242857Y-138229514D02*
X125271428Y-138200942D01*
X125271428Y-138200942D02*
X125328571Y-138172371D01*
X125328571Y-138172371D02*
X125471428Y-138172371D01*
X125471428Y-138172371D02*
X125557142Y-138200942D01*
X126271429Y-138772371D02*
X126271429Y-138172371D01*
X126900000Y-138772371D02*
X126700000Y-138486657D01*
X126557143Y-138772371D02*
X126557143Y-138172371D01*
X126557143Y-138172371D02*
X126785714Y-138172371D01*
X126785714Y-138172371D02*
X126842857Y-138200942D01*
X126842857Y-138200942D02*
X126871428Y-138229514D01*
X126871428Y-138229514D02*
X126900000Y-138286657D01*
X126900000Y-138286657D02*
X126900000Y-138372371D01*
X126900000Y-138372371D02*
X126871428Y-138429514D01*
X126871428Y-138429514D02*
X126842857Y-138458085D01*
X126842857Y-138458085D02*
X126785714Y-138486657D01*
X126785714Y-138486657D02*
X126557143Y-138486657D01*
X127557143Y-138829514D02*
X127500000Y-138800942D01*
X127500000Y-138800942D02*
X127442857Y-138743800D01*
X127442857Y-138743800D02*
X127357143Y-138658085D01*
X127357143Y-138658085D02*
X127300000Y-138629514D01*
X127300000Y-138629514D02*
X127242857Y-138629514D01*
X127271428Y-138772371D02*
X127214286Y-138743800D01*
X127214286Y-138743800D02*
X127157143Y-138686657D01*
X127157143Y-138686657D02*
X127128571Y-138572371D01*
X127128571Y-138572371D02*
X127128571Y-138372371D01*
X127128571Y-138372371D02*
X127157143Y-138258085D01*
X127157143Y-138258085D02*
X127214286Y-138200942D01*
X127214286Y-138200942D02*
X127271428Y-138172371D01*
X127271428Y-138172371D02*
X127385714Y-138172371D01*
X127385714Y-138172371D02*
X127442857Y-138200942D01*
X127442857Y-138200942D02*
X127500000Y-138258085D01*
X127500000Y-138258085D02*
X127528571Y-138372371D01*
X127528571Y-138372371D02*
X127528571Y-138572371D01*
X127528571Y-138572371D02*
X127500000Y-138686657D01*
X127500000Y-138686657D02*
X127442857Y-138743800D01*
X127442857Y-138743800D02*
X127385714Y-138772371D01*
X127385714Y-138772371D02*
X127271428Y-138772371D01*
D10*
X119238095Y-115954819D02*
X119238095Y-116764342D01*
X119238095Y-116764342D02*
X119285714Y-116859580D01*
X119285714Y-116859580D02*
X119333333Y-116907200D01*
X119333333Y-116907200D02*
X119428571Y-116954819D01*
X119428571Y-116954819D02*
X119619047Y-116954819D01*
X119619047Y-116954819D02*
X119714285Y-116907200D01*
X119714285Y-116907200D02*
X119761904Y-116859580D01*
X119761904Y-116859580D02*
X119809523Y-116764342D01*
X119809523Y-116764342D02*
X119809523Y-115954819D01*
X120809523Y-116954819D02*
X120238095Y-116954819D01*
X120523809Y-116954819D02*
X120523809Y-115954819D01*
X120523809Y-115954819D02*
X120428571Y-116097676D01*
X120428571Y-116097676D02*
X120333333Y-116192914D01*
X120333333Y-116192914D02*
X120238095Y-116240533D01*
D12*
X109852380Y-117563855D02*
X110385714Y-118363855D01*
X110385714Y-117563855D02*
X109852380Y-118363855D01*
X111109523Y-118363855D02*
X110652380Y-118363855D01*
X110880952Y-118363855D02*
X110880952Y-117563855D01*
X110880952Y-117563855D02*
X110804761Y-117678140D01*
X110804761Y-117678140D02*
X110728571Y-117754331D01*
X110728571Y-117754331D02*
X110652380Y-117792426D01*
X113985714Y-117787664D02*
X113947618Y-117825760D01*
X113947618Y-117825760D02*
X113833333Y-117863855D01*
X113833333Y-117863855D02*
X113757142Y-117863855D01*
X113757142Y-117863855D02*
X113642856Y-117825760D01*
X113642856Y-117825760D02*
X113566666Y-117749569D01*
X113566666Y-117749569D02*
X113528571Y-117673379D01*
X113528571Y-117673379D02*
X113490475Y-117520998D01*
X113490475Y-117520998D02*
X113490475Y-117406712D01*
X113490475Y-117406712D02*
X113528571Y-117254331D01*
X113528571Y-117254331D02*
X113566666Y-117178140D01*
X113566666Y-117178140D02*
X113642856Y-117101950D01*
X113642856Y-117101950D02*
X113757142Y-117063855D01*
X113757142Y-117063855D02*
X113833333Y-117063855D01*
X113833333Y-117063855D02*
X113947618Y-117101950D01*
X113947618Y-117101950D02*
X113985714Y-117140045D01*
X114252380Y-117063855D02*
X114747618Y-117063855D01*
X114747618Y-117063855D02*
X114480952Y-117368617D01*
X114480952Y-117368617D02*
X114595237Y-117368617D01*
X114595237Y-117368617D02*
X114671428Y-117406712D01*
X114671428Y-117406712D02*
X114709523Y-117444807D01*
X114709523Y-117444807D02*
X114747618Y-117520998D01*
X114747618Y-117520998D02*
X114747618Y-117711474D01*
X114747618Y-117711474D02*
X114709523Y-117787664D01*
X114709523Y-117787664D02*
X114671428Y-117825760D01*
X114671428Y-117825760D02*
X114595237Y-117863855D01*
X114595237Y-117863855D02*
X114366666Y-117863855D01*
X114366666Y-117863855D02*
X114290475Y-117825760D01*
X114290475Y-117825760D02*
X114252380Y-117787664D01*
X115509523Y-117863855D02*
X115052380Y-117863855D01*
X115280952Y-117863855D02*
X115280952Y-117063855D01*
X115280952Y-117063855D02*
X115204761Y-117178140D01*
X115204761Y-117178140D02*
X115128571Y-117254331D01*
X115128571Y-117254331D02*
X115052380Y-117292426D01*
X113985714Y-119787664D02*
X113947618Y-119825760D01*
X113947618Y-119825760D02*
X113833333Y-119863855D01*
X113833333Y-119863855D02*
X113757142Y-119863855D01*
X113757142Y-119863855D02*
X113642856Y-119825760D01*
X113642856Y-119825760D02*
X113566666Y-119749569D01*
X113566666Y-119749569D02*
X113528571Y-119673379D01*
X113528571Y-119673379D02*
X113490475Y-119520998D01*
X113490475Y-119520998D02*
X113490475Y-119406712D01*
X113490475Y-119406712D02*
X113528571Y-119254331D01*
X113528571Y-119254331D02*
X113566666Y-119178140D01*
X113566666Y-119178140D02*
X113642856Y-119101950D01*
X113642856Y-119101950D02*
X113757142Y-119063855D01*
X113757142Y-119063855D02*
X113833333Y-119063855D01*
X113833333Y-119063855D02*
X113947618Y-119101950D01*
X113947618Y-119101950D02*
X113985714Y-119140045D01*
X114252380Y-119063855D02*
X114747618Y-119063855D01*
X114747618Y-119063855D02*
X114480952Y-119368617D01*
X114480952Y-119368617D02*
X114595237Y-119368617D01*
X114595237Y-119368617D02*
X114671428Y-119406712D01*
X114671428Y-119406712D02*
X114709523Y-119444807D01*
X114709523Y-119444807D02*
X114747618Y-119520998D01*
X114747618Y-119520998D02*
X114747618Y-119711474D01*
X114747618Y-119711474D02*
X114709523Y-119787664D01*
X114709523Y-119787664D02*
X114671428Y-119825760D01*
X114671428Y-119825760D02*
X114595237Y-119863855D01*
X114595237Y-119863855D02*
X114366666Y-119863855D01*
X114366666Y-119863855D02*
X114290475Y-119825760D01*
X114290475Y-119825760D02*
X114252380Y-119787664D01*
X115052380Y-119140045D02*
X115090476Y-119101950D01*
X115090476Y-119101950D02*
X115166666Y-119063855D01*
X115166666Y-119063855D02*
X115357142Y-119063855D01*
X115357142Y-119063855D02*
X115433333Y-119101950D01*
X115433333Y-119101950D02*
X115471428Y-119140045D01*
X115471428Y-119140045D02*
X115509523Y-119216236D01*
X115509523Y-119216236D02*
X115509523Y-119292426D01*
X115509523Y-119292426D02*
X115471428Y-119406712D01*
X115471428Y-119406712D02*
X115014285Y-119863855D01*
X115014285Y-119863855D02*
X115509523Y-119863855D01*
X110985714Y-113787664D02*
X110947618Y-113825760D01*
X110947618Y-113825760D02*
X110833333Y-113863855D01*
X110833333Y-113863855D02*
X110757142Y-113863855D01*
X110757142Y-113863855D02*
X110642856Y-113825760D01*
X110642856Y-113825760D02*
X110566666Y-113749569D01*
X110566666Y-113749569D02*
X110528571Y-113673379D01*
X110528571Y-113673379D02*
X110490475Y-113520998D01*
X110490475Y-113520998D02*
X110490475Y-113406712D01*
X110490475Y-113406712D02*
X110528571Y-113254331D01*
X110528571Y-113254331D02*
X110566666Y-113178140D01*
X110566666Y-113178140D02*
X110642856Y-113101950D01*
X110642856Y-113101950D02*
X110757142Y-113063855D01*
X110757142Y-113063855D02*
X110833333Y-113063855D01*
X110833333Y-113063855D02*
X110947618Y-113101950D01*
X110947618Y-113101950D02*
X110985714Y-113140045D01*
X111747618Y-113863855D02*
X111290475Y-113863855D01*
X111519047Y-113863855D02*
X111519047Y-113063855D01*
X111519047Y-113063855D02*
X111442856Y-113178140D01*
X111442856Y-113178140D02*
X111366666Y-113254331D01*
X111366666Y-113254331D02*
X111290475Y-113292426D01*
X112471428Y-113063855D02*
X112090476Y-113063855D01*
X112090476Y-113063855D02*
X112052380Y-113444807D01*
X112052380Y-113444807D02*
X112090476Y-113406712D01*
X112090476Y-113406712D02*
X112166666Y-113368617D01*
X112166666Y-113368617D02*
X112357142Y-113368617D01*
X112357142Y-113368617D02*
X112433333Y-113406712D01*
X112433333Y-113406712D02*
X112471428Y-113444807D01*
X112471428Y-113444807D02*
X112509523Y-113520998D01*
X112509523Y-113520998D02*
X112509523Y-113711474D01*
X112509523Y-113711474D02*
X112471428Y-113787664D01*
X112471428Y-113787664D02*
X112433333Y-113825760D01*
X112433333Y-113825760D02*
X112357142Y-113863855D01*
X112357142Y-113863855D02*
X112166666Y-113863855D01*
X112166666Y-113863855D02*
X112090476Y-113825760D01*
X112090476Y-113825760D02*
X112052380Y-113787664D01*
X110985714Y-122787664D02*
X110947618Y-122825760D01*
X110947618Y-122825760D02*
X110833333Y-122863855D01*
X110833333Y-122863855D02*
X110757142Y-122863855D01*
X110757142Y-122863855D02*
X110642856Y-122825760D01*
X110642856Y-122825760D02*
X110566666Y-122749569D01*
X110566666Y-122749569D02*
X110528571Y-122673379D01*
X110528571Y-122673379D02*
X110490475Y-122520998D01*
X110490475Y-122520998D02*
X110490475Y-122406712D01*
X110490475Y-122406712D02*
X110528571Y-122254331D01*
X110528571Y-122254331D02*
X110566666Y-122178140D01*
X110566666Y-122178140D02*
X110642856Y-122101950D01*
X110642856Y-122101950D02*
X110757142Y-122063855D01*
X110757142Y-122063855D02*
X110833333Y-122063855D01*
X110833333Y-122063855D02*
X110947618Y-122101950D01*
X110947618Y-122101950D02*
X110985714Y-122140045D01*
X111747618Y-122863855D02*
X111290475Y-122863855D01*
X111519047Y-122863855D02*
X111519047Y-122063855D01*
X111519047Y-122063855D02*
X111442856Y-122178140D01*
X111442856Y-122178140D02*
X111366666Y-122254331D01*
X111366666Y-122254331D02*
X111290475Y-122292426D01*
X112433333Y-122063855D02*
X112280952Y-122063855D01*
X112280952Y-122063855D02*
X112204761Y-122101950D01*
X112204761Y-122101950D02*
X112166666Y-122140045D01*
X112166666Y-122140045D02*
X112090476Y-122254331D01*
X112090476Y-122254331D02*
X112052380Y-122406712D01*
X112052380Y-122406712D02*
X112052380Y-122711474D01*
X112052380Y-122711474D02*
X112090476Y-122787664D01*
X112090476Y-122787664D02*
X112128571Y-122825760D01*
X112128571Y-122825760D02*
X112204761Y-122863855D01*
X112204761Y-122863855D02*
X112357142Y-122863855D01*
X112357142Y-122863855D02*
X112433333Y-122825760D01*
X112433333Y-122825760D02*
X112471428Y-122787664D01*
X112471428Y-122787664D02*
X112509523Y-122711474D01*
X112509523Y-122711474D02*
X112509523Y-122520998D01*
X112509523Y-122520998D02*
X112471428Y-122444807D01*
X112471428Y-122444807D02*
X112433333Y-122406712D01*
X112433333Y-122406712D02*
X112357142Y-122368617D01*
X112357142Y-122368617D02*
X112204761Y-122368617D01*
X112204761Y-122368617D02*
X112128571Y-122406712D01*
X112128571Y-122406712D02*
X112090476Y-122444807D01*
X112090476Y-122444807D02*
X112052380Y-122520998D01*
X107985714Y-113787664D02*
X107947618Y-113825760D01*
X107947618Y-113825760D02*
X107833333Y-113863855D01*
X107833333Y-113863855D02*
X107757142Y-113863855D01*
X107757142Y-113863855D02*
X107642856Y-113825760D01*
X107642856Y-113825760D02*
X107566666Y-113749569D01*
X107566666Y-113749569D02*
X107528571Y-113673379D01*
X107528571Y-113673379D02*
X107490475Y-113520998D01*
X107490475Y-113520998D02*
X107490475Y-113406712D01*
X107490475Y-113406712D02*
X107528571Y-113254331D01*
X107528571Y-113254331D02*
X107566666Y-113178140D01*
X107566666Y-113178140D02*
X107642856Y-113101950D01*
X107642856Y-113101950D02*
X107757142Y-113063855D01*
X107757142Y-113063855D02*
X107833333Y-113063855D01*
X107833333Y-113063855D02*
X107947618Y-113101950D01*
X107947618Y-113101950D02*
X107985714Y-113140045D01*
X108747618Y-113863855D02*
X108290475Y-113863855D01*
X108519047Y-113863855D02*
X108519047Y-113063855D01*
X108519047Y-113063855D02*
X108442856Y-113178140D01*
X108442856Y-113178140D02*
X108366666Y-113254331D01*
X108366666Y-113254331D02*
X108290475Y-113292426D01*
X109014285Y-113063855D02*
X109547619Y-113063855D01*
X109547619Y-113063855D02*
X109204761Y-113863855D01*
X107985714Y-122787664D02*
X107947618Y-122825760D01*
X107947618Y-122825760D02*
X107833333Y-122863855D01*
X107833333Y-122863855D02*
X107757142Y-122863855D01*
X107757142Y-122863855D02*
X107642856Y-122825760D01*
X107642856Y-122825760D02*
X107566666Y-122749569D01*
X107566666Y-122749569D02*
X107528571Y-122673379D01*
X107528571Y-122673379D02*
X107490475Y-122520998D01*
X107490475Y-122520998D02*
X107490475Y-122406712D01*
X107490475Y-122406712D02*
X107528571Y-122254331D01*
X107528571Y-122254331D02*
X107566666Y-122178140D01*
X107566666Y-122178140D02*
X107642856Y-122101950D01*
X107642856Y-122101950D02*
X107757142Y-122063855D01*
X107757142Y-122063855D02*
X107833333Y-122063855D01*
X107833333Y-122063855D02*
X107947618Y-122101950D01*
X107947618Y-122101950D02*
X107985714Y-122140045D01*
X108747618Y-122863855D02*
X108290475Y-122863855D01*
X108519047Y-122863855D02*
X108519047Y-122063855D01*
X108519047Y-122063855D02*
X108442856Y-122178140D01*
X108442856Y-122178140D02*
X108366666Y-122254331D01*
X108366666Y-122254331D02*
X108290475Y-122292426D01*
X109204761Y-122406712D02*
X109128571Y-122368617D01*
X109128571Y-122368617D02*
X109090476Y-122330521D01*
X109090476Y-122330521D02*
X109052380Y-122254331D01*
X109052380Y-122254331D02*
X109052380Y-122216236D01*
X109052380Y-122216236D02*
X109090476Y-122140045D01*
X109090476Y-122140045D02*
X109128571Y-122101950D01*
X109128571Y-122101950D02*
X109204761Y-122063855D01*
X109204761Y-122063855D02*
X109357142Y-122063855D01*
X109357142Y-122063855D02*
X109433333Y-122101950D01*
X109433333Y-122101950D02*
X109471428Y-122140045D01*
X109471428Y-122140045D02*
X109509523Y-122216236D01*
X109509523Y-122216236D02*
X109509523Y-122254331D01*
X109509523Y-122254331D02*
X109471428Y-122330521D01*
X109471428Y-122330521D02*
X109433333Y-122368617D01*
X109433333Y-122368617D02*
X109357142Y-122406712D01*
X109357142Y-122406712D02*
X109204761Y-122406712D01*
X109204761Y-122406712D02*
X109128571Y-122444807D01*
X109128571Y-122444807D02*
X109090476Y-122482902D01*
X109090476Y-122482902D02*
X109052380Y-122559093D01*
X109052380Y-122559093D02*
X109052380Y-122711474D01*
X109052380Y-122711474D02*
X109090476Y-122787664D01*
X109090476Y-122787664D02*
X109128571Y-122825760D01*
X109128571Y-122825760D02*
X109204761Y-122863855D01*
X109204761Y-122863855D02*
X109357142Y-122863855D01*
X109357142Y-122863855D02*
X109433333Y-122825760D01*
X109433333Y-122825760D02*
X109471428Y-122787664D01*
X109471428Y-122787664D02*
X109509523Y-122711474D01*
X109509523Y-122711474D02*
X109509523Y-122559093D01*
X109509523Y-122559093D02*
X109471428Y-122482902D01*
X109471428Y-122482902D02*
X109433333Y-122444807D01*
X109433333Y-122444807D02*
X109357142Y-122406712D01*
X118363855Y-126133333D02*
X118363855Y-126514285D01*
X118363855Y-126514285D02*
X117563855Y-126514285D01*
X118363855Y-125447619D02*
X118363855Y-125904762D01*
X118363855Y-125676190D02*
X117563855Y-125676190D01*
X117563855Y-125676190D02*
X117678140Y-125752381D01*
X117678140Y-125752381D02*
X117754331Y-125828571D01*
X117754331Y-125828571D02*
X117792426Y-125904762D01*
X120363855Y-126133333D02*
X120363855Y-126514285D01*
X120363855Y-126514285D02*
X119563855Y-126514285D01*
X119640045Y-125904762D02*
X119601950Y-125866666D01*
X119601950Y-125866666D02*
X119563855Y-125790476D01*
X119563855Y-125790476D02*
X119563855Y-125600000D01*
X119563855Y-125600000D02*
X119601950Y-125523809D01*
X119601950Y-125523809D02*
X119640045Y-125485714D01*
X119640045Y-125485714D02*
X119716236Y-125447619D01*
X119716236Y-125447619D02*
X119792426Y-125447619D01*
X119792426Y-125447619D02*
X119906712Y-125485714D01*
X119906712Y-125485714D02*
X120363855Y-125942857D01*
X120363855Y-125942857D02*
X120363855Y-125447619D01*
X116366667Y-124787664D02*
X116328571Y-124825760D01*
X116328571Y-124825760D02*
X116214286Y-124863855D01*
X116214286Y-124863855D02*
X116138095Y-124863855D01*
X116138095Y-124863855D02*
X116023809Y-124825760D01*
X116023809Y-124825760D02*
X115947619Y-124749569D01*
X115947619Y-124749569D02*
X115909524Y-124673379D01*
X115909524Y-124673379D02*
X115871428Y-124520998D01*
X115871428Y-124520998D02*
X115871428Y-124406712D01*
X115871428Y-124406712D02*
X115909524Y-124254331D01*
X115909524Y-124254331D02*
X115947619Y-124178140D01*
X115947619Y-124178140D02*
X116023809Y-124101950D01*
X116023809Y-124101950D02*
X116138095Y-124063855D01*
X116138095Y-124063855D02*
X116214286Y-124063855D01*
X116214286Y-124063855D02*
X116328571Y-124101950D01*
X116328571Y-124101950D02*
X116366667Y-124140045D01*
X117128571Y-124863855D02*
X116671428Y-124863855D01*
X116900000Y-124863855D02*
X116900000Y-124063855D01*
X116900000Y-124063855D02*
X116823809Y-124178140D01*
X116823809Y-124178140D02*
X116747619Y-124254331D01*
X116747619Y-124254331D02*
X116671428Y-124292426D01*
X124366667Y-124787664D02*
X124328571Y-124825760D01*
X124328571Y-124825760D02*
X124214286Y-124863855D01*
X124214286Y-124863855D02*
X124138095Y-124863855D01*
X124138095Y-124863855D02*
X124023809Y-124825760D01*
X124023809Y-124825760D02*
X123947619Y-124749569D01*
X123947619Y-124749569D02*
X123909524Y-124673379D01*
X123909524Y-124673379D02*
X123871428Y-124520998D01*
X123871428Y-124520998D02*
X123871428Y-124406712D01*
X123871428Y-124406712D02*
X123909524Y-124254331D01*
X123909524Y-124254331D02*
X123947619Y-124178140D01*
X123947619Y-124178140D02*
X124023809Y-124101950D01*
X124023809Y-124101950D02*
X124138095Y-124063855D01*
X124138095Y-124063855D02*
X124214286Y-124063855D01*
X124214286Y-124063855D02*
X124328571Y-124101950D01*
X124328571Y-124101950D02*
X124366667Y-124140045D01*
X124671428Y-124140045D02*
X124709524Y-124101950D01*
X124709524Y-124101950D02*
X124785714Y-124063855D01*
X124785714Y-124063855D02*
X124976190Y-124063855D01*
X124976190Y-124063855D02*
X125052381Y-124101950D01*
X125052381Y-124101950D02*
X125090476Y-124140045D01*
X125090476Y-124140045D02*
X125128571Y-124216236D01*
X125128571Y-124216236D02*
X125128571Y-124292426D01*
X125128571Y-124292426D02*
X125090476Y-124406712D01*
X125090476Y-124406712D02*
X124633333Y-124863855D01*
X124633333Y-124863855D02*
X125128571Y-124863855D01*
X118287664Y-129133332D02*
X118325760Y-129171428D01*
X118325760Y-129171428D02*
X118363855Y-129285713D01*
X118363855Y-129285713D02*
X118363855Y-129361904D01*
X118363855Y-129361904D02*
X118325760Y-129476190D01*
X118325760Y-129476190D02*
X118249569Y-129552380D01*
X118249569Y-129552380D02*
X118173379Y-129590475D01*
X118173379Y-129590475D02*
X118020998Y-129628571D01*
X118020998Y-129628571D02*
X117906712Y-129628571D01*
X117906712Y-129628571D02*
X117754331Y-129590475D01*
X117754331Y-129590475D02*
X117678140Y-129552380D01*
X117678140Y-129552380D02*
X117601950Y-129476190D01*
X117601950Y-129476190D02*
X117563855Y-129361904D01*
X117563855Y-129361904D02*
X117563855Y-129285713D01*
X117563855Y-129285713D02*
X117601950Y-129171428D01*
X117601950Y-129171428D02*
X117640045Y-129133332D01*
X117563855Y-128866666D02*
X117563855Y-128371428D01*
X117563855Y-128371428D02*
X117868617Y-128638094D01*
X117868617Y-128638094D02*
X117868617Y-128523809D01*
X117868617Y-128523809D02*
X117906712Y-128447618D01*
X117906712Y-128447618D02*
X117944807Y-128409523D01*
X117944807Y-128409523D02*
X118020998Y-128371428D01*
X118020998Y-128371428D02*
X118211474Y-128371428D01*
X118211474Y-128371428D02*
X118287664Y-128409523D01*
X118287664Y-128409523D02*
X118325760Y-128447618D01*
X118325760Y-128447618D02*
X118363855Y-128523809D01*
X118363855Y-128523809D02*
X118363855Y-128752380D01*
X118363855Y-128752380D02*
X118325760Y-128828571D01*
X118325760Y-128828571D02*
X118287664Y-128866666D01*
X120287664Y-129133332D02*
X120325760Y-129171428D01*
X120325760Y-129171428D02*
X120363855Y-129285713D01*
X120363855Y-129285713D02*
X120363855Y-129361904D01*
X120363855Y-129361904D02*
X120325760Y-129476190D01*
X120325760Y-129476190D02*
X120249569Y-129552380D01*
X120249569Y-129552380D02*
X120173379Y-129590475D01*
X120173379Y-129590475D02*
X120020998Y-129628571D01*
X120020998Y-129628571D02*
X119906712Y-129628571D01*
X119906712Y-129628571D02*
X119754331Y-129590475D01*
X119754331Y-129590475D02*
X119678140Y-129552380D01*
X119678140Y-129552380D02*
X119601950Y-129476190D01*
X119601950Y-129476190D02*
X119563855Y-129361904D01*
X119563855Y-129361904D02*
X119563855Y-129285713D01*
X119563855Y-129285713D02*
X119601950Y-129171428D01*
X119601950Y-129171428D02*
X119640045Y-129133332D01*
X119830521Y-128447618D02*
X120363855Y-128447618D01*
X119525760Y-128638094D02*
X120097188Y-128828571D01*
X120097188Y-128828571D02*
X120097188Y-128333332D01*
X118363855Y-132133332D02*
X117982902Y-132399999D01*
X118363855Y-132590475D02*
X117563855Y-132590475D01*
X117563855Y-132590475D02*
X117563855Y-132285713D01*
X117563855Y-132285713D02*
X117601950Y-132209523D01*
X117601950Y-132209523D02*
X117640045Y-132171428D01*
X117640045Y-132171428D02*
X117716236Y-132133332D01*
X117716236Y-132133332D02*
X117830521Y-132133332D01*
X117830521Y-132133332D02*
X117906712Y-132171428D01*
X117906712Y-132171428D02*
X117944807Y-132209523D01*
X117944807Y-132209523D02*
X117982902Y-132285713D01*
X117982902Y-132285713D02*
X117982902Y-132590475D01*
X118363855Y-131371428D02*
X118363855Y-131828571D01*
X118363855Y-131599999D02*
X117563855Y-131599999D01*
X117563855Y-131599999D02*
X117678140Y-131676190D01*
X117678140Y-131676190D02*
X117754331Y-131752380D01*
X117754331Y-131752380D02*
X117792426Y-131828571D01*
X120363855Y-132133332D02*
X119982902Y-132399999D01*
X120363855Y-132590475D02*
X119563855Y-132590475D01*
X119563855Y-132590475D02*
X119563855Y-132285713D01*
X119563855Y-132285713D02*
X119601950Y-132209523D01*
X119601950Y-132209523D02*
X119640045Y-132171428D01*
X119640045Y-132171428D02*
X119716236Y-132133332D01*
X119716236Y-132133332D02*
X119830521Y-132133332D01*
X119830521Y-132133332D02*
X119906712Y-132171428D01*
X119906712Y-132171428D02*
X119944807Y-132209523D01*
X119944807Y-132209523D02*
X119982902Y-132285713D01*
X119982902Y-132285713D02*
X119982902Y-132590475D01*
X119640045Y-131828571D02*
X119601950Y-131790475D01*
X119601950Y-131790475D02*
X119563855Y-131714285D01*
X119563855Y-131714285D02*
X119563855Y-131523809D01*
X119563855Y-131523809D02*
X119601950Y-131447618D01*
X119601950Y-131447618D02*
X119640045Y-131409523D01*
X119640045Y-131409523D02*
X119716236Y-131371428D01*
X119716236Y-131371428D02*
X119792426Y-131371428D01*
X119792426Y-131371428D02*
X119906712Y-131409523D01*
X119906712Y-131409523D02*
X120363855Y-131866666D01*
X120363855Y-131866666D02*
X120363855Y-131371428D01*
X125366667Y-118287664D02*
X125328571Y-118325760D01*
X125328571Y-118325760D02*
X125214286Y-118363855D01*
X125214286Y-118363855D02*
X125138095Y-118363855D01*
X125138095Y-118363855D02*
X125023809Y-118325760D01*
X125023809Y-118325760D02*
X124947619Y-118249569D01*
X124947619Y-118249569D02*
X124909524Y-118173379D01*
X124909524Y-118173379D02*
X124871428Y-118020998D01*
X124871428Y-118020998D02*
X124871428Y-117906712D01*
X124871428Y-117906712D02*
X124909524Y-117754331D01*
X124909524Y-117754331D02*
X124947619Y-117678140D01*
X124947619Y-117678140D02*
X125023809Y-117601950D01*
X125023809Y-117601950D02*
X125138095Y-117563855D01*
X125138095Y-117563855D02*
X125214286Y-117563855D01*
X125214286Y-117563855D02*
X125328571Y-117601950D01*
X125328571Y-117601950D02*
X125366667Y-117640045D01*
X126090476Y-117563855D02*
X125709524Y-117563855D01*
X125709524Y-117563855D02*
X125671428Y-117944807D01*
X125671428Y-117944807D02*
X125709524Y-117906712D01*
X125709524Y-117906712D02*
X125785714Y-117868617D01*
X125785714Y-117868617D02*
X125976190Y-117868617D01*
X125976190Y-117868617D02*
X126052381Y-117906712D01*
X126052381Y-117906712D02*
X126090476Y-117944807D01*
X126090476Y-117944807D02*
X126128571Y-118020998D01*
X126128571Y-118020998D02*
X126128571Y-118211474D01*
X126128571Y-118211474D02*
X126090476Y-118287664D01*
X126090476Y-118287664D02*
X126052381Y-118325760D01*
X126052381Y-118325760D02*
X125976190Y-118363855D01*
X125976190Y-118363855D02*
X125785714Y-118363855D01*
X125785714Y-118363855D02*
X125709524Y-118325760D01*
X125709524Y-118325760D02*
X125671428Y-118287664D01*
X125366667Y-116787664D02*
X125328571Y-116825760D01*
X125328571Y-116825760D02*
X125214286Y-116863855D01*
X125214286Y-116863855D02*
X125138095Y-116863855D01*
X125138095Y-116863855D02*
X125023809Y-116825760D01*
X125023809Y-116825760D02*
X124947619Y-116749569D01*
X124947619Y-116749569D02*
X124909524Y-116673379D01*
X124909524Y-116673379D02*
X124871428Y-116520998D01*
X124871428Y-116520998D02*
X124871428Y-116406712D01*
X124871428Y-116406712D02*
X124909524Y-116254331D01*
X124909524Y-116254331D02*
X124947619Y-116178140D01*
X124947619Y-116178140D02*
X125023809Y-116101950D01*
X125023809Y-116101950D02*
X125138095Y-116063855D01*
X125138095Y-116063855D02*
X125214286Y-116063855D01*
X125214286Y-116063855D02*
X125328571Y-116101950D01*
X125328571Y-116101950D02*
X125366667Y-116140045D01*
X126052381Y-116063855D02*
X125900000Y-116063855D01*
X125900000Y-116063855D02*
X125823809Y-116101950D01*
X125823809Y-116101950D02*
X125785714Y-116140045D01*
X125785714Y-116140045D02*
X125709524Y-116254331D01*
X125709524Y-116254331D02*
X125671428Y-116406712D01*
X125671428Y-116406712D02*
X125671428Y-116711474D01*
X125671428Y-116711474D02*
X125709524Y-116787664D01*
X125709524Y-116787664D02*
X125747619Y-116825760D01*
X125747619Y-116825760D02*
X125823809Y-116863855D01*
X125823809Y-116863855D02*
X125976190Y-116863855D01*
X125976190Y-116863855D02*
X126052381Y-116825760D01*
X126052381Y-116825760D02*
X126090476Y-116787664D01*
X126090476Y-116787664D02*
X126128571Y-116711474D01*
X126128571Y-116711474D02*
X126128571Y-116520998D01*
X126128571Y-116520998D02*
X126090476Y-116444807D01*
X126090476Y-116444807D02*
X126052381Y-116406712D01*
X126052381Y-116406712D02*
X125976190Y-116368617D01*
X125976190Y-116368617D02*
X125823809Y-116368617D01*
X125823809Y-116368617D02*
X125747619Y-116406712D01*
X125747619Y-116406712D02*
X125709524Y-116444807D01*
X125709524Y-116444807D02*
X125671428Y-116520998D01*
X124985714Y-115287664D02*
X124947618Y-115325760D01*
X124947618Y-115325760D02*
X124833333Y-115363855D01*
X124833333Y-115363855D02*
X124757142Y-115363855D01*
X124757142Y-115363855D02*
X124642856Y-115325760D01*
X124642856Y-115325760D02*
X124566666Y-115249569D01*
X124566666Y-115249569D02*
X124528571Y-115173379D01*
X124528571Y-115173379D02*
X124490475Y-115020998D01*
X124490475Y-115020998D02*
X124490475Y-114906712D01*
X124490475Y-114906712D02*
X124528571Y-114754331D01*
X124528571Y-114754331D02*
X124566666Y-114678140D01*
X124566666Y-114678140D02*
X124642856Y-114601950D01*
X124642856Y-114601950D02*
X124757142Y-114563855D01*
X124757142Y-114563855D02*
X124833333Y-114563855D01*
X124833333Y-114563855D02*
X124947618Y-114601950D01*
X124947618Y-114601950D02*
X124985714Y-114640045D01*
X125747618Y-115363855D02*
X125290475Y-115363855D01*
X125519047Y-115363855D02*
X125519047Y-114563855D01*
X125519047Y-114563855D02*
X125442856Y-114678140D01*
X125442856Y-114678140D02*
X125366666Y-114754331D01*
X125366666Y-114754331D02*
X125290475Y-114792426D01*
X126128571Y-115363855D02*
X126280952Y-115363855D01*
X126280952Y-115363855D02*
X126357142Y-115325760D01*
X126357142Y-115325760D02*
X126395238Y-115287664D01*
X126395238Y-115287664D02*
X126471428Y-115173379D01*
X126471428Y-115173379D02*
X126509523Y-115020998D01*
X126509523Y-115020998D02*
X126509523Y-114716236D01*
X126509523Y-114716236D02*
X126471428Y-114640045D01*
X126471428Y-114640045D02*
X126433333Y-114601950D01*
X126433333Y-114601950D02*
X126357142Y-114563855D01*
X126357142Y-114563855D02*
X126204761Y-114563855D01*
X126204761Y-114563855D02*
X126128571Y-114601950D01*
X126128571Y-114601950D02*
X126090476Y-114640045D01*
X126090476Y-114640045D02*
X126052380Y-114716236D01*
X126052380Y-114716236D02*
X126052380Y-114906712D01*
X126052380Y-114906712D02*
X126090476Y-114982902D01*
X126090476Y-114982902D02*
X126128571Y-115020998D01*
X126128571Y-115020998D02*
X126204761Y-115059093D01*
X126204761Y-115059093D02*
X126357142Y-115059093D01*
X126357142Y-115059093D02*
X126433333Y-115020998D01*
X126433333Y-115020998D02*
X126471428Y-114982902D01*
X126471428Y-114982902D02*
X126509523Y-114906712D01*
X116985714Y-122787664D02*
X116947618Y-122825760D01*
X116947618Y-122825760D02*
X116833333Y-122863855D01*
X116833333Y-122863855D02*
X116757142Y-122863855D01*
X116757142Y-122863855D02*
X116642856Y-122825760D01*
X116642856Y-122825760D02*
X116566666Y-122749569D01*
X116566666Y-122749569D02*
X116528571Y-122673379D01*
X116528571Y-122673379D02*
X116490475Y-122520998D01*
X116490475Y-122520998D02*
X116490475Y-122406712D01*
X116490475Y-122406712D02*
X116528571Y-122254331D01*
X116528571Y-122254331D02*
X116566666Y-122178140D01*
X116566666Y-122178140D02*
X116642856Y-122101950D01*
X116642856Y-122101950D02*
X116757142Y-122063855D01*
X116757142Y-122063855D02*
X116833333Y-122063855D01*
X116833333Y-122063855D02*
X116947618Y-122101950D01*
X116947618Y-122101950D02*
X116985714Y-122140045D01*
X117290475Y-122140045D02*
X117328571Y-122101950D01*
X117328571Y-122101950D02*
X117404761Y-122063855D01*
X117404761Y-122063855D02*
X117595237Y-122063855D01*
X117595237Y-122063855D02*
X117671428Y-122101950D01*
X117671428Y-122101950D02*
X117709523Y-122140045D01*
X117709523Y-122140045D02*
X117747618Y-122216236D01*
X117747618Y-122216236D02*
X117747618Y-122292426D01*
X117747618Y-122292426D02*
X117709523Y-122406712D01*
X117709523Y-122406712D02*
X117252380Y-122863855D01*
X117252380Y-122863855D02*
X117747618Y-122863855D01*
X118242857Y-122063855D02*
X118319047Y-122063855D01*
X118319047Y-122063855D02*
X118395238Y-122101950D01*
X118395238Y-122101950D02*
X118433333Y-122140045D01*
X118433333Y-122140045D02*
X118471428Y-122216236D01*
X118471428Y-122216236D02*
X118509523Y-122368617D01*
X118509523Y-122368617D02*
X118509523Y-122559093D01*
X118509523Y-122559093D02*
X118471428Y-122711474D01*
X118471428Y-122711474D02*
X118433333Y-122787664D01*
X118433333Y-122787664D02*
X118395238Y-122825760D01*
X118395238Y-122825760D02*
X118319047Y-122863855D01*
X118319047Y-122863855D02*
X118242857Y-122863855D01*
X118242857Y-122863855D02*
X118166666Y-122825760D01*
X118166666Y-122825760D02*
X118128571Y-122787664D01*
X118128571Y-122787664D02*
X118090476Y-122711474D01*
X118090476Y-122711474D02*
X118052380Y-122559093D01*
X118052380Y-122559093D02*
X118052380Y-122368617D01*
X118052380Y-122368617D02*
X118090476Y-122216236D01*
X118090476Y-122216236D02*
X118128571Y-122140045D01*
X118128571Y-122140045D02*
X118166666Y-122101950D01*
X118166666Y-122101950D02*
X118242857Y-122063855D01*
X126890476Y-106563855D02*
X126890476Y-107211474D01*
X126890476Y-107211474D02*
X126928571Y-107287664D01*
X126928571Y-107287664D02*
X126966666Y-107325760D01*
X126966666Y-107325760D02*
X127042857Y-107363855D01*
X127042857Y-107363855D02*
X127195238Y-107363855D01*
X127195238Y-107363855D02*
X127271428Y-107325760D01*
X127271428Y-107325760D02*
X127309523Y-107287664D01*
X127309523Y-107287664D02*
X127347619Y-107211474D01*
X127347619Y-107211474D02*
X127347619Y-106563855D01*
X127652380Y-106563855D02*
X128147618Y-106563855D01*
X128147618Y-106563855D02*
X127880952Y-106868617D01*
X127880952Y-106868617D02*
X127995237Y-106868617D01*
X127995237Y-106868617D02*
X128071428Y-106906712D01*
X128071428Y-106906712D02*
X128109523Y-106944807D01*
X128109523Y-106944807D02*
X128147618Y-107020998D01*
X128147618Y-107020998D02*
X128147618Y-107211474D01*
X128147618Y-107211474D02*
X128109523Y-107287664D01*
X128109523Y-107287664D02*
X128071428Y-107325760D01*
X128071428Y-107325760D02*
X127995237Y-107363855D01*
X127995237Y-107363855D02*
X127766666Y-107363855D01*
X127766666Y-107363855D02*
X127690475Y-107325760D01*
X127690475Y-107325760D02*
X127652380Y-107287664D01*
X104947619Y-113907664D02*
X104909523Y-113945760D01*
X104909523Y-113945760D02*
X104795238Y-113983855D01*
X104795238Y-113983855D02*
X104719047Y-113983855D01*
X104719047Y-113983855D02*
X104604761Y-113945760D01*
X104604761Y-113945760D02*
X104528571Y-113869569D01*
X104528571Y-113869569D02*
X104490476Y-113793379D01*
X104490476Y-113793379D02*
X104452380Y-113640998D01*
X104452380Y-113640998D02*
X104452380Y-113526712D01*
X104452380Y-113526712D02*
X104490476Y-113374331D01*
X104490476Y-113374331D02*
X104528571Y-113298140D01*
X104528571Y-113298140D02*
X104604761Y-113221950D01*
X104604761Y-113221950D02*
X104719047Y-113183855D01*
X104719047Y-113183855D02*
X104795238Y-113183855D01*
X104795238Y-113183855D02*
X104909523Y-113221950D01*
X104909523Y-113221950D02*
X104947619Y-113260045D01*
X105290476Y-113983855D02*
X105290476Y-113183855D01*
X105290476Y-113183855D02*
X105747619Y-113983855D01*
X105747619Y-113983855D02*
X105747619Y-113183855D01*
X106547618Y-113983855D02*
X106090475Y-113983855D01*
X106319047Y-113983855D02*
X106319047Y-113183855D01*
X106319047Y-113183855D02*
X106242856Y-113298140D01*
X106242856Y-113298140D02*
X106166666Y-113374331D01*
X106166666Y-113374331D02*
X106090475Y-113412426D01*
%TO.C,U1*%
X117500000Y-117500000D02*
X122500000Y-117500000D01*
X122500000Y-117500000D02*
X122500000Y-122500000D01*
X122500000Y-122500000D02*
X117500000Y-122500000D01*
X117500000Y-122500000D02*
X117500000Y-117500000D01*
D13*
X117500000Y-117500000D02*
X118000000Y-117500000D01*
%TD*%
M02*
